<svg id="svg" version="1.1" xmlns="http://www.w3.org/2000/svg" xmlns:xlink="http://www.w3.org/1999/xlink" width="400" height="400" viewBox="0, 0, 400,400"><g id="svgg"><path id="path0" d="M98.104 151.855 C 96.634 155.536,63.672 244.306,63.672 244.582 C 63.672 244.769,65.489 244.922,67.710 244.922 L 71.748 244.922 77.015 229.980 L 82.282 215.039 102.370 215.039 L 122.457 215.039 127.795 229.883 L 133.133 244.727 137.317 244.838 C 140.593 244.925,141.462 244.840,141.322 244.447 C 141.223 244.171,133.338 222.983,123.798 197.363 L 106.453 150.781 102.493 150.781 C 98.537 150.781,98.532 150.782,98.104 151.855 M235.742 157.038 L 232.617 158.541 232.422 168.431 L 232.227 178.320 225.684 178.427 L 219.141 178.535 219.141 181.445 L 219.141 184.356 225.684 184.463 L 232.227 184.570 232.422 208.398 L 232.618 232.227 233.625 234.812 C 237.015 243.518,241.072 246.318,250.195 246.246 C 253.806 246.217,256.261 246.009,257.422 245.633 L 259.180 245.065 259.080 242.943 C 258.908 239.290,258.791 239.059,257.324 239.492 C 251.804 241.124,245.568 240.165,243.042 237.296 C 239.999 233.838,240.059 234.403,239.930 207.910 L 239.815 184.375 250.376 184.375 L 260.938 184.375 260.938 181.445 L 260.938 178.516 250.391 178.516 L 239.844 178.516 239.844 166.992 C 239.844 158.016,239.736 155.476,239.355 155.502 C 239.087 155.520,237.461 156.212,235.742 157.038 M111.376 183.896 C 115.923 196.728,119.727 207.534,119.828 207.910 C 120.002 208.554,118.984 208.594,102.389 208.594 C 92.696 208.594,84.766 208.518,84.766 208.426 C 84.766 208.334,88.565 197.655,93.209 184.696 C 97.852 171.736,101.836 160.618,102.061 159.988 C 102.456 158.881,102.480 158.872,102.788 159.705 C 102.964 160.179,106.828 171.065,111.376 183.896 M294.730 177.973 C 269.731 183.504,261.026 218.483,279.880 237.641 C 291.410 249.357,313.159 249.837,325.149 238.640 C 344.794 220.294,337.535 185.103,312.695 178.266 C 309.321 177.337,298.409 177.159,294.730 177.973 M151.955 200.293 C 151.957 226.684,152.169 228.627,155.849 235.916 C 163.012 250.108,188.496 250.053,198.633 235.824 C 200.617 233.039,200.476 232.965,201.270 237.207 C 201.642 239.194,202.310 242.013,202.753 243.471 L 203.561 246.121 204.948 245.860 C 211.105 244.705,210.834 245.087,209.261 239.800 C 207.531 233.988,207.422 231.887,207.422 204.464 L 207.422 178.516 203.711 178.516 L 200.000 178.516 200.000 199.785 C 200.000 226.572,199.889 227.174,193.853 233.179 C 183.704 243.275,167.871 242.414,162.484 231.472 C 159.633 225.680,159.638 225.736,159.478 200.879 L 159.334 178.516 155.643 178.516 L 151.953 178.516 151.955 200.293 M309.354 184.199 C 322.276 187.245,330.872 201.844,328.547 216.797 C 323.387 249.982,278.821 247.220,277.446 213.630 C 276.623 193.530,291.342 179.953,309.354 184.199 " stroke="none" fill="#26cc84" fill-rule="evenodd"></path><path id="path1" d="M106.641 26.590 C 79.371 27.933,63.886 33.858,49.037 48.633 C 34.928 62.670,29.090 76.511,26.876 101.172 C 26.133 109.447,26.133 290.562,26.876 298.828 C 29.071 323.244,34.848 337.108,48.574 350.904 C 62.756 365.158,76.846 371.068,101.563 373.128 C 110.382 373.863,289.628 373.863,298.438 373.128 C 322.878 371.088,337.009 365.242,350.919 351.415 C 365.035 337.384,370.912 323.467,373.124 298.828 C 373.867 290.553,373.867 109.438,373.124 101.172 C 370.916 76.615,365.118 62.791,351.177 48.850 C 337.439 35.112,324.015 29.396,299.609 26.890 C 294.288 26.344,117.233 26.069,106.641 26.590 M119.907 186.426 C 127.291 206.245,135.216 227.515,137.517 233.691 L 141.701 244.922 137.355 244.919 L 133.008 244.916 127.727 230.173 L 122.447 215.430 102.389 215.430 L 82.331 215.430 77.160 230.078 L 71.988 244.727 67.588 244.837 C 63.499 244.940,63.207 244.899,63.464 244.252 C 63.616 243.868,71.444 222.900,80.860 197.656 C 90.276 172.412,98.102 151.450,98.250 151.074 C 98.483 150.486,99.074 150.391,102.501 150.391 L 106.481 150.391 119.907 186.426 M250.608 178.516 L 261.361 178.516 261.247 181.543 L 261.133 184.570 250.468 184.674 L 239.804 184.778 239.935 207.721 C 240.080 232.822,240.075 232.771,242.467 236.385 C 244.798 239.908,249.968 240.877,257.687 239.239 L 258.929 238.976 259.202 241.749 C 259.352 243.274,259.465 244.649,259.453 244.804 C 259.371 245.893,250.894 247.007,246.675 246.484 C 240.014 245.658,235.275 241.126,232.965 233.374 C 232.346 231.296,232.260 228.649,232.133 207.910 L 231.991 184.766 225.371 184.766 L 218.750 184.766 218.750 181.641 L 218.750 178.516 225.384 178.516 L 232.018 178.516 232.122 168.520 L 232.227 158.523 235.938 156.815 L 239.648 155.107 239.752 166.811 L 239.855 178.516 250.608 178.516 M102.372 159.410 C 102.357 159.537,98.477 170.436,93.750 183.629 C 89.023 196.823,85.156 207.837,85.156 208.105 C 85.156 208.489,88.902 208.594,102.581 208.594 C 119.017 208.594,119.990 208.555,119.739 207.910 C 119.592 207.534,115.949 197.295,111.643 185.156 C 102.310 158.845,102.408 159.118,102.372 159.410 M312.109 177.946 C 344.704 186.193,344.557 237.470,311.914 245.954 C 307.783 247.027,297.817 246.923,293.566 245.761 C 260.383 236.691,262.248 183.946,295.978 177.546 C 299.831 176.815,308.489 177.030,312.109 177.946 M159.375 198.155 C 159.375 224.421,160.042 228.974,164.728 234.693 C 171.920 243.469,189.172 240.936,196.452 230.034 C 199.803 225.016,199.760 225.379,199.913 200.488 L 200.047 178.516 203.930 178.516 L 207.813 178.516 207.821 205.762 C 207.830 235.343,207.826 235.278,210.119 242.078 C 210.569 243.414,210.938 244.578,210.938 244.666 C 210.938 245.071,203.829 246.173,203.478 245.822 C 203.165 245.509,201.589 239.597,200.599 235.026 L 200.359 233.919 199.530 235.026 C 187.707 250.817,162.864 250.780,155.285 234.961 C 151.901 227.897,151.570 224.685,151.566 198.926 L 151.563 178.516 155.469 178.516 L 159.375 178.516 159.375 198.155 M298.145 184.001 C 285.507 186.266,276.575 199.087,277.474 213.672 C 279.590 248.009,324.708 249.477,328.511 215.332 C 330.673 195.924,316.014 180.799,298.145 184.001 " stroke="none" fill="#fbfbfb" fill-rule="evenodd"></path><path id="path2" d="M108.008 25.257 C 92.360 25.935,77.585 28.758,70.215 32.479 C 69.409 32.886,68.750 33.132,68.750 33.026 C 68.750 32.920,67.871 33.351,66.797 33.984 C 65.723 34.618,64.844 35.046,64.844 34.935 C 64.844 34.825,64.624 34.919,64.355 35.145 C 64.087 35.371,62.109 36.714,59.961 38.130 C 49.609 44.953,39.656 55.819,34.570 65.852 C 33.926 67.124,33.252 68.272,33.072 68.403 C 32.893 68.534,32.791 68.710,32.846 68.794 C 32.901 68.877,32.237 70.791,31.370 73.047 C 29.908 76.855,27.833 84.008,27.523 86.311 C 27.450 86.858,27.127 89.063,26.806 91.211 C 25.200 101.961,25.195 102.280,25.195 200.391 C 25.195 298.399,25.186 297.746,26.792 308.984 C 27.930 316.940,30.224 324.966,33.227 331.497 C 34.057 333.302,34.728 334.888,34.717 335.022 C 34.707 335.155,34.856 335.372,35.049 335.503 C 35.242 335.635,36.036 336.797,36.814 338.086 C 39.808 343.048,48.199 353.078,51.217 355.302 C 53.088 356.681,57.172 359.952,57.888 360.645 C 58.276 361.021,58.678 361.328,58.781 361.328 C 58.885 361.328,59.919 361.936,61.081 362.679 C 63.925 364.498,71.432 368.279,73.633 369.000 C 75.929 369.752,83.622 371.976,84.375 372.106 C 84.912 372.198,85.791 372.376,86.328 372.501 C 86.865 372.627,87.832 372.803,88.477 372.893 C 89.121 372.983,91.758 373.352,94.336 373.712 C 100.483 374.573,288.583 375.009,299.414 374.188 C 313.378 373.130,322.378 371.015,331.836 366.569 C 333.555 365.761,335.093 365.130,335.254 365.167 C 335.415 365.204,335.547 365.087,335.547 364.906 C 335.547 364.593,337.532 363.525,337.847 363.669 C 337.930 363.707,338.106 363.579,338.238 363.383 C 338.369 363.187,339.578 362.285,340.925 361.377 C 342.271 360.470,344.607 358.694,346.115 357.430 C 347.624 356.167,348.983 355.077,349.136 355.008 C 349.807 354.706,357.177 346.591,358.851 344.311 C 359.867 342.928,360.839 341.797,361.013 341.797 C 361.186 341.797,361.328 341.648,361.328 341.465 C 361.328 341.282,362.313 339.500,363.516 337.504 C 364.719 335.508,365.879 333.372,366.093 332.758 C 366.307 332.143,366.641 331.641,366.835 331.641 C 367.029 331.641,367.150 331.509,367.105 331.348 C 367.060 331.187,367.742 329.209,368.621 326.953 C 370.003 323.407,372.076 316.301,372.438 313.867 C 372.502 313.438,372.841 311.152,373.193 308.789 C 374.720 298.508,374.723 298.353,374.891 206.055 C 375.086 99.125,375.039 97.336,371.649 82.874 C 370.502 77.977,368.737 72.784,366.747 68.450 C 365.931 66.674,365.272 65.112,365.283 64.978 C 365.293 64.845,365.139 64.628,364.941 64.497 C 364.743 64.365,364.070 63.379,363.446 62.305 C 356.161 49.760,337.640 34.074,326.563 31.065 C 326.455 31.036,324.873 30.547,323.047 29.977 C 319.256 28.795,315.278 27.791,313.281 27.513 C 312.529 27.408,311.600 27.226,311.217 27.107 C 310.833 26.989,309.955 26.837,309.264 26.770 C 308.573 26.703,306.306 26.443,304.226 26.192 C 302.146 25.941,299.597 25.643,298.562 25.530 C 296.588 25.315,112.753 25.052,108.008 25.257 M295.508 26.582 C 321.153 28.135,335.844 33.854,350.533 48.003 C 363.862 60.843,370.169 74.611,372.924 96.882 C 373.740 103.480,374.212 281.984,373.448 294.902 C 371.846 321.964,365.492 337.640,350.151 352.373 C 337.281 364.735,324.628 370.263,303.118 372.924 C 296.520 373.740,118.016 374.212,105.098 373.448 C 78.885 371.896,64.280 366.264,49.467 351.997 C 36.150 339.168,29.828 325.370,27.076 303.118 C 26.260 296.520,25.788 118.016,26.552 105.098 C 28.154 78.036,34.508 62.360,49.849 47.627 C 64.473 33.581,79.359 28.005,106.445 26.426 C 112.358 26.082,289.662 26.228,295.508 26.582 " stroke="none" fill="#a4a4a4" fill-rule="evenodd"></path><path id="path3" d="M107.520 25.280 C 108.110 25.369,109.077 25.369,109.668 25.280 C 110.259 25.190,109.775 25.117,108.594 25.117 C 107.412 25.117,106.929 25.190,107.520 25.280 M289.746 25.283 C 290.444 25.369,291.587 25.369,292.285 25.283 C 292.983 25.196,292.412 25.125,291.016 25.125 C 289.619 25.125,289.048 25.196,289.746 25.283 M109.277 26.454 C 109.976 26.541,111.118 26.541,111.816 26.454 C 112.515 26.368,111.943 26.297,110.547 26.297 C 109.150 26.297,108.579 26.368,109.277 26.454 M288.191 26.455 C 288.893 26.542,289.947 26.540,290.534 26.451 C 291.121 26.362,290.547 26.291,289.258 26.293 C 287.969 26.295,287.488 26.368,288.191 26.455 M101.660 26.832 C 102.036 26.930,102.651 26.930,103.027 26.832 C 103.403 26.734,103.096 26.653,102.344 26.653 C 101.592 26.653,101.284 26.734,101.660 26.832 M296.973 26.832 C 297.349 26.930,297.964 26.930,298.340 26.832 C 298.716 26.734,298.408 26.653,297.656 26.653 C 296.904 26.653,296.597 26.734,296.973 26.832 M47.645 47.949 L 45.117 50.586 47.754 48.058 C 49.204 46.668,50.391 45.481,50.391 45.421 C 50.391 45.134,49.993 45.500,47.645 47.949 M351.953 47.852 C 353.337 49.248,354.558 50.391,354.665 50.391 C 354.772 50.391,353.728 49.248,352.344 47.852 C 350.960 46.455,349.739 45.313,349.632 45.313 C 349.525 45.313,350.569 46.455,351.953 47.852 M25.481 101.563 C 25.481 102.314,25.562 102.622,25.660 102.246 C 25.758 101.870,25.758 101.255,25.660 100.879 C 25.562 100.503,25.481 100.811,25.481 101.563 M26.653 102.344 C 26.653 103.096,26.734 103.403,26.832 103.027 C 26.930 102.651,26.930 102.036,26.832 101.660 C 26.734 101.284,26.653 101.592,26.653 102.344 M373.138 102.344 C 373.138 103.096,373.218 103.403,373.316 103.027 C 373.414 102.651,373.414 102.036,373.316 101.660 C 373.218 101.284,373.138 101.592,373.138 102.344 M25.117 108.594 C 25.117 109.775,25.190 110.259,25.280 109.668 C 25.369 109.077,25.369 108.110,25.280 107.520 C 25.190 106.929,25.117 107.412,25.117 108.594 M374.726 108.594 C 374.726 109.775,374.800 110.259,374.889 109.668 C 374.979 109.077,374.979 108.110,374.889 107.520 C 374.800 106.929,374.726 107.412,374.726 108.594 M26.297 110.547 C 26.297 111.943,26.368 112.515,26.454 111.816 C 26.541 111.118,26.541 109.976,26.454 109.277 C 26.368 108.579,26.297 109.150,26.297 110.547 M373.559 110.352 C 373.561 111.641,373.634 112.121,373.721 111.419 C 373.808 110.717,373.806 109.662,373.717 109.075 C 373.627 108.488,373.556 109.063,373.559 110.352 M100.503 150.680 C 101.746 150.757,103.679 150.757,104.799 150.678 C 105.920 150.599,104.902 150.536,102.539 150.537 C 100.176 150.538,99.259 150.602,100.503 150.680 M232.207 158.699 C 232.103 158.971,232.064 163.498,232.122 168.757 L 232.228 178.320 232.423 168.261 C 232.613 158.422,232.596 157.685,232.207 158.699 M300.893 177.242 C 302.136 177.320,304.070 177.319,305.190 177.241 C 306.310 177.162,305.293 177.098,302.930 177.099 C 300.566 177.100,299.650 177.164,300.893 177.242 M151.745 199.609 C 151.745 211.318,151.794 216.108,151.855 210.254 C 151.916 204.399,151.916 194.819,151.855 188.965 C 151.794 183.110,151.745 187.900,151.745 199.609 M207.607 205.078 C 207.607 219.795,207.655 225.815,207.715 218.457 C 207.774 211.099,207.774 199.058,207.715 191.699 C 207.655 184.341,207.607 190.361,207.607 205.078 M218.829 181.543 L 218.750 184.766 225.387 184.766 L 232.025 184.766 232.131 206.738 L 232.236 228.711 232.231 206.641 L 232.227 184.570 225.700 184.463 L 219.173 184.356 219.040 181.338 L 218.907 178.320 218.829 181.543 M261.014 181.341 L 260.938 184.362 250.293 184.473 L 239.648 184.583 250.305 184.675 C 262.425 184.778,261.438 185.109,261.229 181.016 L 261.091 178.320 261.014 181.341 M326.156 186.035 C 327.113 187.056,327.948 187.891,328.011 187.891 C 328.304 187.891,327.994 187.540,326.270 185.921 L 324.414 184.180 326.156 186.035 M285.327 190.723 L 284.180 191.992 285.449 190.845 C 286.147 190.214,286.719 189.643,286.719 189.575 C 286.719 189.274,286.396 189.539,285.327 190.723 M269.676 211.719 C 269.676 213.975,269.740 214.897,269.819 213.770 C 269.898 212.642,269.898 210.796,269.819 209.668 C 269.740 208.540,269.676 209.463,269.676 211.719 M328.606 208.984 C 328.606 209.736,328.687 210.044,328.785 209.668 C 328.883 209.292,328.883 208.677,328.785 208.301 C 328.687 207.925,328.606 208.232,328.606 208.984 M336.440 211.914 C 336.443 212.988,336.519 213.381,336.608 212.788 C 336.698 212.194,336.696 211.315,336.603 210.834 C 336.510 210.354,336.437 210.840,336.440 211.914 M328.606 214.453 C 328.606 215.205,328.687 215.513,328.785 215.137 C 328.883 214.761,328.883 214.146,328.785 213.770 C 328.687 213.394,328.606 213.701,328.606 214.453 M82.287 215.137 C 82.187 215.298,91.213 215.430,102.344 215.430 C 113.475 215.430,122.500 215.298,122.401 215.137 C 122.301 214.976,113.275 214.844,102.344 214.844 C 91.412 214.844,82.387 214.976,82.287 215.137 M325.958 237.988 L 324.414 239.648 326.074 238.104 C 326.987 237.255,327.734 236.508,327.734 236.444 C 327.734 236.149,327.394 236.444,325.958 237.988 M174.707 240.113 C 175.083 240.211,175.698 240.211,176.074 240.113 C 176.450 240.015,176.143 239.934,175.391 239.934 C 174.639 239.934,174.331 240.015,174.707 240.113 M178.423 240.120 C 178.908 240.213,179.612 240.210,179.985 240.112 C 180.358 240.014,179.961 239.938,179.102 239.942 C 178.242 239.947,177.937 240.027,178.423 240.120 M251.465 240.119 C 251.948 240.213,252.739 240.213,253.223 240.119 C 253.706 240.026,253.311 239.950,252.344 239.950 C 251.377 239.950,250.981 240.026,251.465 240.119 M299.512 246.760 C 299.995 246.853,300.786 246.853,301.270 246.760 C 301.753 246.667,301.357 246.591,300.391 246.591 C 299.424 246.591,299.028 246.667,299.512 246.760 M304.980 246.760 C 305.464 246.853,306.255 246.853,306.738 246.760 C 307.222 246.667,306.826 246.591,305.859 246.591 C 304.893 246.591,304.497 246.667,304.980 246.760 M373.563 289.453 C 373.563 290.850,373.633 291.421,373.720 290.723 C 373.807 290.024,373.807 288.882,373.720 288.184 C 373.633 287.485,373.563 288.057,373.563 289.453 M26.293 289.648 C 26.295 290.938,26.368 291.418,26.455 290.716 C 26.542 290.014,26.540 288.959,26.451 288.372 C 26.362 287.785,26.291 288.359,26.293 289.648 M25.117 291.406 C 25.117 292.588,25.190 293.071,25.280 292.480 C 25.369 291.890,25.369 290.923,25.280 290.332 C 25.190 289.741,25.117 290.225,25.117 291.406 M374.721 291.602 C 374.724 292.676,374.800 293.069,374.890 292.475 C 374.979 291.881,374.977 291.002,374.884 290.522 C 374.792 290.042,374.718 290.527,374.721 291.602 M26.653 297.656 C 26.653 298.408,26.734 298.716,26.832 298.340 C 26.930 297.964,26.930 297.349,26.832 296.973 C 26.734 296.597,26.653 296.904,26.653 297.656 M373.138 297.656 C 373.138 298.408,373.218 298.716,373.316 298.340 C 373.414 297.964,373.414 297.349,373.316 296.973 C 373.218 296.597,373.138 296.904,373.138 297.656 M374.309 298.438 C 374.309 299.189,374.390 299.497,374.488 299.121 C 374.586 298.745,374.586 298.130,374.488 297.754 C 374.390 297.378,374.309 297.686,374.309 298.438 M47.266 351.758 C 48.650 353.154,49.870 354.297,49.977 354.297 C 50.085 354.297,49.040 353.154,47.656 351.758 C 46.272 350.361,45.052 349.219,44.944 349.219 C 44.837 349.219,45.882 350.361,47.266 351.758 M351.942 352.246 L 349.414 354.883 352.051 352.355 C 353.501 350.965,354.688 349.778,354.688 349.718 C 354.688 349.431,354.290 349.797,351.942 352.246 M101.860 373.323 C 102.346 373.417,103.049 373.413,103.423 373.315 C 103.796 373.217,103.398 373.141,102.539 373.145 C 101.680 373.150,101.374 373.230,101.860 373.323 M296.782 373.323 C 297.268 373.417,297.971 373.413,298.344 373.315 C 298.718 373.217,298.320 373.141,297.461 373.145 C 296.602 373.150,296.296 373.230,296.782 373.323 M109.277 373.720 C 109.976 373.807,111.118 373.807,111.816 373.720 C 112.515 373.633,111.943 373.563,110.547 373.563 C 109.150 373.563,108.579 373.633,109.277 373.720 M288.184 373.720 C 288.882 373.807,290.024 373.807,290.723 373.720 C 291.421 373.633,290.850 373.563,289.453 373.563 C 288.057 373.563,287.485 373.633,288.184 373.720 M101.270 374.499 C 101.860 374.588,102.827 374.588,103.418 374.499 C 104.009 374.409,103.525 374.336,102.344 374.336 C 101.162 374.336,100.679 374.409,101.270 374.499 M297.563 374.495 C 298.049 374.588,298.752 374.585,299.126 374.487 C 299.499 374.389,299.102 374.313,298.242 374.317 C 297.383 374.322,297.077 374.402,297.563 374.495 " stroke="none" fill="#a7cfb9" fill-rule="evenodd"></path><path id="path4" d="M153.223 374.902 C 178.950 374.958,221.050 374.958,246.777 374.902 C 272.505 374.847,251.455 374.801,200.000 374.801 C 148.545 374.801,127.495 374.847,153.223 374.902 " stroke="none" fill="#156c9d" fill-rule="evenodd"></path></g></svg>