<svg id="svg" version="1.1" xmlns="http://www.w3.org/2000/svg" xmlns:xlink="http://www.w3.org/1999/xlink" width="400" height="400" viewBox="0, 0, 400,400"><g id="svgg"><path id="path0" d="M127.148 83.592 C 128.332 83.895,132.690 84.104,132.389 83.844 C 132.300 83.766,130.820 83.610,129.102 83.498 C 127.329 83.381,126.484 83.422,127.148 83.592 M122.266 84.002 C 121.838 84.292,121.996 84.328,122.852 84.137 C 124.288 83.815,124.600 83.592,123.600 83.600 C 123.188 83.603,122.588 83.784,122.266 84.002 M144.531 86.310 C 144.854 86.528,145.454 86.709,145.866 86.713 C 146.865 86.721,146.553 86.497,145.117 86.176 C 144.261 85.984,144.103 86.021,144.531 86.310 M117.567 88.303 C 117.330 88.745,117.195 89.279,117.265 89.492 C 117.336 89.704,117.596 89.343,117.843 88.689 C 118.356 87.329,118.203 87.115,117.567 88.303 M281.105 94.450 C 281.000 94.620,281.512 94.689,282.243 94.604 C 283.316 94.478,283.798 94.675,284.754 95.632 C 285.405 96.282,285.938 96.668,285.938 96.489 C 285.938 95.218,281.728 93.442,281.105 94.450 M271.576 103.256 C 257.588 116.987,257.263 117.278,257.008 116.282 C 256.822 115.557,256.748 115.628,256.517 116.762 C 256.367 117.494,256.316 118.165,256.403 118.252 C 256.535 118.384,261.820 113.306,278.706 96.824 C 279.778 95.778,280.522 94.922,280.360 94.922 C 280.198 94.922,276.245 98.672,271.576 103.256 M117.313 97.656 C 117.313 99.053,117.383 99.624,117.470 98.926 C 117.557 98.228,117.557 97.085,117.470 96.387 C 117.383 95.688,117.313 96.260,117.313 97.656 M254.082 100.032 C 253.642 100.257,253.047 100.816,252.760 101.276 C 252.325 101.973,252.446 101.937,253.493 101.056 C 257.135 97.991,259.732 101.360,258.398 107.422 C 257.787 110.200,257.685 111.195,258.049 110.832 C 258.407 110.474,259.374 105.079,259.375 103.438 C 259.375 100.823,256.352 98.877,254.082 100.032 M272.461 112.598 C 265.371 119.517,259.440 125.383,259.281 125.633 C 259.063 125.977,261.180 126.037,267.915 125.878 C 277.578 125.650,278.458 125.738,279.725 127.056 L 280.565 127.930 280.117 127.060 C 279.296 125.464,278.546 125.358,268.905 125.475 L 259.686 125.586 272.714 112.809 C 279.880 105.781,285.654 100.028,285.547 100.024 C 285.439 100.020,279.551 105.678,272.461 112.598 M117.669 101.563 C 117.669 102.314,117.749 102.622,117.847 102.246 C 117.946 101.870,117.946 101.255,117.847 100.879 C 117.749 100.503,117.669 100.811,117.669 101.563 M251.828 102.887 C 251.445 103.886,249.942 112.572,250.122 112.752 C 250.216 112.846,250.743 110.590,251.294 107.739 C 252.217 102.957,252.385 101.436,251.828 102.887 M182.813 105.982 C 182.813 106.049,183.384 106.620,184.082 107.251 L 185.352 108.398 184.204 107.129 C 183.135 105.946,182.813 105.680,182.813 105.982 M248.485 119.207 C 247.646 123.462,247.222 126.258,247.390 126.427 C 247.486 126.523,247.951 124.556,248.424 122.056 C 248.896 119.557,249.196 117.425,249.090 117.319 C 248.983 117.212,248.711 118.062,248.485 119.207 M233.954 119.892 C 233.326 120.520,232.813 121.267,232.814 121.552 C 232.815 121.837,233.161 121.504,233.583 120.811 C 234.812 118.795,237.367 118.612,239.100 120.415 L 239.940 121.289 239.478 120.391 C 238.496 118.488,235.619 118.227,233.954 119.892 M239.934 122.656 C 239.934 123.408,240.015 123.716,240.113 123.340 C 240.211 122.964,240.211 122.349,240.113 121.973 C 240.015 121.597,239.934 121.904,239.934 122.656 M231.670 126.172 C 231.653 126.279,231.287 128.175,230.858 130.385 C 230.429 132.595,230.096 134.704,230.117 135.072 C 230.139 135.441,230.579 133.724,231.096 131.258 C 231.613 128.792,231.961 126.594,231.869 126.375 C 231.778 126.156,231.688 126.064,231.670 126.172 M238.507 129.772 C 238.145 131.767,237.759 133.838,237.649 134.375 C 237.503 135.093,237.548 135.197,237.820 134.766 C 238.270 134.053,239.629 126.608,239.359 126.338 C 239.253 126.232,238.870 127.778,238.507 129.772 M242.394 131.628 C 239.822 134.180,237.581 136.183,237.414 136.079 C 237.246 135.976,237.109 136.179,237.109 136.530 C 237.109 136.909,239.180 135.216,242.188 132.377 C 246.420 128.383,247.830 126.853,247.168 126.970 C 247.114 126.980,244.966 129.076,242.394 131.628 M279.433 131.598 L 278.593 132.617 265.099 132.852 L 251.606 133.087 245.530 138.865 C 242.188 142.043,239.453 144.706,239.453 144.782 C 239.453 144.859,243.101 144.882,247.559 144.833 L 255.664 144.744 247.924 144.629 L 240.184 144.515 245.776 139.070 L 251.367 133.625 255.469 133.568 C 257.725 133.537,263.829 133.398,269.035 133.260 L 278.499 133.008 279.561 131.945 C 280.145 131.361,280.544 130.815,280.448 130.731 C 280.352 130.648,279.895 131.038,279.433 131.598 M206.261 140.792 C 205.680 142.318,205.795 142.559,206.492 141.274 C 206.822 140.664,206.996 140.069,206.877 139.950 C 206.759 139.832,206.482 140.211,206.261 140.792 M228.517 142.059 C 228.266 143.311,227.970 144.719,227.861 145.188 C 227.752 145.657,224.964 148.691,221.664 151.931 C 218.365 155.170,215.546 158.039,215.399 158.305 C 215.252 158.571,218.005 155.977,221.517 152.539 C 225.029 149.102,227.949 146.277,228.007 146.263 C 228.236 146.205,229.354 140.162,229.171 139.978 C 229.063 139.870,228.769 140.806,228.517 142.059 M259.243 145.158 C 261.497 146.270,261.895 149.049,260.054 150.819 L 259.180 151.659 260.050 151.211 C 262.727 149.833,261.666 144.503,258.721 144.540 C 258.245 144.546,258.419 144.752,259.243 145.158 M204.130 147.353 C 203.076 151.229,203.032 151.455,203.461 150.781 C 203.931 150.044,205.179 145.283,204.959 145.063 C 204.870 144.974,204.496 146.004,204.130 147.353 M136.328 146.997 C 136.328 147.064,136.899 147.636,137.598 148.267 L 138.867 149.414 137.720 148.145 C 136.650 146.961,136.328 146.695,136.328 146.997 M141.406 152.539 C 142.573 153.721,143.616 154.688,143.723 154.688 C 143.831 154.688,142.964 153.721,141.797 152.539 C 140.630 151.357,139.587 150.391,139.480 150.391 C 139.372 150.391,140.239 151.357,141.406 152.539 M255.957 151.842 C 256.548 151.932,257.515 151.932,258.105 151.842 C 258.696 151.753,258.213 151.680,257.031 151.680 C 255.850 151.680,255.366 151.753,255.957 151.842 M230.838 153.418 L 229.492 154.883 230.869 153.622 L 232.246 152.361 239.853 152.246 L 247.461 152.131 239.823 152.042 L 232.185 151.953 230.838 153.418 M201.194 157.111 C 199.902 162.012,199.903 162.008,200.340 161.322 C 200.817 160.574,202.442 154.265,202.216 154.039 C 202.124 153.947,201.664 155.329,201.194 157.111 M221.871 162.006 L 214.648 169.324 221.269 162.885 C 227.343 156.977,229.565 154.688,229.224 154.688 C 229.152 154.688,225.843 157.981,221.871 162.006 M211.707 161.621 L 209.180 164.258 211.816 161.730 C 213.267 160.340,214.453 159.153,214.453 159.093 C 214.453 158.806,214.055 159.172,211.707 161.621 M150.000 159.908 C 150.000 160.015,150.527 160.479,151.172 160.938 C 151.816 161.396,152.344 161.684,152.344 161.577 C 152.344 161.469,151.816 161.006,151.172 160.547 C 150.527 160.088,150.000 159.800,150.000 159.908 M208.672 164.922 C 206.384 167.210,211.337 171.751,213.890 169.705 C 214.623 169.118,214.619 169.112,213.795 169.510 C 210.960 170.879,207.565 167.886,208.972 165.257 C 209.459 164.347,209.359 164.235,208.672 164.922 M198.307 168.625 C 197.450 172.452,197.126 174.447,197.403 174.192 C 197.718 173.903,199.276 166.333,199.065 166.122 C 198.976 166.033,198.635 167.159,198.307 168.625 M170.703 172.006 C 170.703 172.107,171.270 172.387,171.964 172.629 C 172.657 172.870,173.053 172.907,172.843 172.711 C 172.398 172.294,170.703 171.736,170.703 172.006 M133.008 216.074 C 125.538 218.827,126.103 229.509,133.812 231.283 C 140.370 232.791,145.613 225.874,142.450 219.886 C 140.807 216.775,136.177 214.906,133.008 216.074 M256.953 218.765 C 251.090 219.763,248.581 227.208,252.606 231.663 C 257.312 236.872,265.687 234.014,266.287 226.996 C 266.719 221.940,262.120 217.886,256.953 218.765 M196.484 221.105 C 194.873 221.244,193.027 221.555,192.383 221.797 C 191.738 222.038,189.629 222.694,187.695 223.254 C 176.869 226.390,166.931 234.540,161.152 245.020 L 159.698 247.656 155.142 247.659 C 141.129 247.667,128.840 255.871,123.839 268.555 C 123.331 269.844,122.890 270.939,122.858 270.989 C 122.827 271.038,121.551 270.554,120.023 269.911 C 107.924 264.828,94.497 273.874,94.497 287.109 C 94.497 303.060,113.990 311.690,125.491 300.831 C 126.958 299.446,126.960 299.445,127.542 300.277 C 138.773 316.311,162.555 319.163,176.760 306.180 L 178.860 304.260 180.934 305.312 C 192.267 311.056,207.517 311.033,219.734 305.253 L 221.836 304.259 224.605 306.584 C 239.078 318.736,262.463 315.845,272.943 300.608 L 273.734 299.458 275.636 301.044 C 291.338 314.131,313.266 296.615,304.025 278.366 C 299.497 269.423,288.755 266.262,278.486 270.850 C 278.003 271.066,277.631 270.529,276.748 268.336 C 271.664 255.706,258.723 247.302,245.006 247.721 L 240.988 247.844 239.192 244.527 C 236.160 238.929,232.155 234.257,227.148 230.478 C 221.414 226.150,218.141 224.677,207.617 221.689 C 205.246 221.015,200.446 220.764,196.484 221.105 M275.125 227.027 C 273.247 227.935,273.141 231.036,274.956 232.007 C 277.070 233.139,279.297 231.864,279.297 229.521 C 279.297 227.309,277.171 226.038,275.125 227.027 M120.845 238.730 C 118.128 240.073,119.203 244.313,122.240 244.227 C 124.014 244.176,125.000 243.169,125.000 241.406 C 125.000 239.191,122.790 237.768,120.845 238.730 M275.142 241.863 C 272.513 243.136,273.496 247.266,276.428 247.266 C 279.169 247.266,280.398 243.892,278.268 242.216 C 277.141 241.330,276.414 241.247,275.142 241.863 " stroke="none" fill="#9f9820" fill-rule="evenodd"></path><path id="path1" d="M106.250 26.597 C 79.348 27.952,63.806 33.938,49.037 48.633 C 34.928 62.670,29.090 76.511,26.876 101.172 C 26.133 109.447,26.133 290.562,26.876 298.828 C 29.085 323.393,34.881 337.208,48.837 351.163 C 62.834 365.161,77.048 371.082,101.563 373.128 C 110.333 373.859,290.547 373.864,298.828 373.133 C 323.078 370.991,337.125 365.136,350.904 351.426 C 365.077 337.325,370.907 323.525,373.124 298.828 C 373.867 290.553,373.867 109.438,373.124 101.172 C 370.915 76.607,365.119 62.792,351.163 48.837 C 337.425 35.098,324.035 29.398,299.609 26.890 C 294.243 26.340,116.709 26.070,106.250 26.597 M134.409 83.811 C 160.050 87.387,182.926 101.232,197.305 121.875 C 200.659 126.690,205.040 134.591,206.204 137.923 L 206.670 139.258 209.499 133.594 C 221.620 109.324,244.312 92.639,274.805 85.578 C 298.341 80.127,301.605 83.693,295.698 108.398 C 285.895 149.391,254.753 177.221,214.355 181.089 C 212.809 181.237,211.715 181.524,211.710 181.784 C 211.705 182.027,211.346 184.512,210.912 187.305 C 209.704 195.089,208.631 206.449,208.343 214.498 L 208.083 221.770 210.975 222.419 C 222.315 224.963,233.477 233.574,239.224 244.210 L 241.056 247.600 245.626 247.587 C 259.810 247.546,273.330 256.781,277.325 269.238 C 277.884 270.980,277.645 270.949,280.786 269.692 C 292.862 264.861,306.288 273.871,306.347 286.847 C 306.424 303.517,288.303 311.489,274.872 300.693 L 273.767 299.805 272.951 300.977 C 262.510 315.958,239.524 318.859,224.876 307.045 L 221.823 304.582 219.408 305.661 C 206.955 311.226,193.625 311.333,181.945 305.962 L 178.930 304.575 177.416 305.943 C 162.826 319.124,139.996 316.864,127.830 301.035 L 126.974 299.921 125.396 301.272 C 107.873 316.271,83.701 291.734,99.113 274.592 C 104.530 268.567,115.758 266.297,121.220 270.122 C 122.516 271.031,122.813 270.846,123.583 268.652 C 127.920 256.290,140.910 247.567,154.981 247.569 L 159.768 247.569 160.525 245.857 C 164.974 235.800,177.489 225.566,188.912 222.645 C 190.571 222.220,191.999 221.803,192.085 221.717 C 192.171 221.631,192.398 217.984,192.590 213.612 C 193.027 203.648,195.036 183.836,195.912 180.859 C 196.048 180.398,194.936 179.991,190.718 178.959 C 148.255 168.571,121.936 140.785,117.407 101.563 C 115.457 84.681,118.426 81.582,134.409 83.811 M138.587 216.231 C 143.578 218.313,145.182 224.796,141.690 228.773 C 137.721 233.293,130.968 232.510,128.334 227.224 C 125.010 220.554,131.715 213.365,138.587 216.231 M261.914 219.284 C 264.164 220.341,264.966 221.137,265.805 223.146 C 268.728 230.140,261.585 237.039,254.883 233.696 C 245.417 228.974,252.339 214.787,261.914 219.284 M278.809 227.592 C 281.462 230.511,277.184 234.642,274.396 231.854 C 273.138 230.595,273.101 228.567,274.316 227.462 C 275.992 225.937,277.340 225.977,278.809 227.592 M124.618 239.358 C 126.994 242.378,123.030 246.159,120.116 243.652 C 117.714 241.587,119.768 237.596,122.922 238.199 C 123.430 238.296,124.193 238.818,124.618 239.358 M278.729 242.365 C 279.769 243.405,279.975 245.101,279.187 246.128 C 277.224 248.684,273.438 247.528,273.438 244.372 C 273.438 241.676,276.774 240.410,278.729 242.365 " stroke="none" fill="#fbfbfb" fill-rule="evenodd"></path><path id="path2" d="M123.633 83.955 C 116.833 85.853,116.025 89.444,118.570 106.445 C 121.760 127.759,133.299 147.123,150.586 160.176 C 156.121 164.356,164.724 169.330,170.214 171.527 C 171.450 172.021,172.643 172.555,172.865 172.714 C 174.306 173.743,187.455 177.957,192.922 179.141 C 196.362 179.886,196.148 180.098,197.031 175.072 C 198.444 167.024,201.341 156.080,205.341 143.681 L 206.686 139.510 204.339 134.696 C 196.223 118.055,182.804 103.568,168.359 95.854 C 167.393 95.337,166.338 94.744,166.016 94.535 C 164.944 93.841,160.386 91.741,157.813 90.755 C 156.416 90.220,154.746 89.543,154.102 89.250 C 153.457 88.958,151.348 88.263,149.414 87.706 C 147.480 87.148,145.056 86.439,144.026 86.129 C 141.300 85.308,135.985 84.445,130.942 84.006 C 128.517 83.795,126.408 83.550,126.255 83.461 C 126.102 83.373,124.922 83.595,123.633 83.955 M277.987 97.559 C 276.241 99.224,270.711 104.601,265.697 109.508 C 260.683 114.415,256.516 118.365,256.438 118.287 C 256.359 118.208,256.900 115.077,257.639 111.329 C 259.440 102.206,259.062 100.000,255.700 100.000 C 252.986 100.000,252.597 100.983,249.831 114.841 L 247.298 127.534 242.301 132.277 C 239.553 134.886,237.261 136.982,237.207 136.935 C 237.153 136.887,237.723 133.787,238.474 130.045 C 240.279 121.051,240.166 120.019,237.294 119.298 C 233.961 118.462,233.499 119.460,230.626 133.721 L 228.170 145.910 221.995 151.981 C 218.599 155.320,214.441 159.360,212.755 160.959 C 208.291 165.196,207.617 167.227,210.044 169.136 C 212.445 171.024,212.931 170.708,223.351 160.489 L 232.054 151.953 242.492 151.951 C 258.899 151.947,260.497 151.695,261.172 149.005 C 262.101 145.306,260.464 144.746,249.121 144.878 C 243.804 144.940,239.453 144.913,239.453 144.817 C 239.453 144.721,242.188 142.043,245.530 138.865 L 251.606 133.087 265.095 132.852 L 278.584 132.617 279.526 131.521 C 281.275 129.488,280.405 126.563,277.861 125.924 C 277.298 125.783,272.823 125.762,267.915 125.878 C 261.172 126.037,259.063 125.977,259.281 125.633 C 259.440 125.382,265.404 119.492,272.534 112.544 C 279.664 105.596,285.597 99.653,285.718 99.338 C 286.532 97.215,284.684 94.531,282.407 94.531 C 281.385 94.531,280.587 95.078,277.987 97.559 M156.152 374.902 C 180.483 374.958,220.298 374.958,244.629 374.902 C 268.960 374.847,249.053 374.801,200.391 374.801 C 151.729 374.801,131.821 374.847,156.152 374.902 " stroke="none" fill="#4c931c" fill-rule="evenodd"></path><path id="path3" d="M108.789 25.254 C 92.767 25.923,79.677 28.328,70.878 32.219 C 69.708 32.737,68.747 33.038,68.744 32.889 C 68.741 32.739,68.609 32.802,68.451 33.029 C 68.061 33.589,64.845 35.216,64.838 34.857 C 64.834 34.699,64.703 34.761,64.545 34.995 C 64.387 35.228,63.379 35.930,62.305 36.554 C 59.897 37.952,53.198 42.935,52.186 44.080 C 51.776 44.543,51.313 44.922,51.155 44.922 C 49.351 44.922,37.888 59.425,34.732 65.700 C 34.051 67.055,33.296 68.293,33.055 68.451 C 32.814 68.609,32.739 68.741,32.889 68.744 C 33.038 68.747,32.754 69.673,32.257 70.801 C 30.547 74.682,28.096 82.764,27.548 86.328 C 27.465 86.865,27.198 88.535,26.954 90.039 C 25.236 100.612,25.269 98.693,25.174 195.898 C 25.125 246.602,25.230 290.779,25.407 294.072 C 26.278 310.261,29.011 322.916,33.612 332.068 C 34.466 333.767,35.031 335.159,34.868 335.162 C 34.704 335.166,34.757 335.297,34.985 335.455 C 35.213 335.613,36.036 336.797,36.814 338.086 C 39.825 343.076,48.151 353.005,51.237 355.285 C 53.025 356.606,57.148 359.929,57.888 360.645 C 58.276 361.021,58.678 361.328,58.781 361.328 C 58.885 361.328,59.981 361.975,61.217 362.766 C 63.262 364.074,72.699 368.800,73.633 368.983 C 73.848 369.026,76.133 369.709,78.711 370.502 C 81.289 371.295,84.094 372.028,84.944 372.131 C 85.795 372.235,86.635 372.409,86.813 372.519 C 86.990 372.629,87.789 372.795,88.587 372.888 C 89.386 372.981,91.369 373.235,92.993 373.451 C 100.979 374.516,110.111 374.615,200.586 374.618 C 305.638 374.621,303.235 374.679,316.211 371.843 C 322.127 370.550,331.372 367.226,334.211 365.372 C 334.658 365.080,335.141 364.959,335.285 365.103 C 335.429 365.247,335.547 365.188,335.547 364.972 C 335.547 364.617,337.019 363.738,337.500 363.805 C 337.607 363.819,338.047 363.546,338.477 363.196 C 339.447 362.407,346.913 356.722,348.354 355.675 C 349.826 354.605,357.078 346.746,358.999 344.141 C 359.869 342.959,360.750 341.934,360.955 341.862 C 361.160 341.790,361.328 341.562,361.328 341.355 C 361.328 341.148,361.940 340.022,362.687 338.854 C 363.434 337.686,364.599 335.629,365.276 334.283 C 365.953 332.937,366.704 331.707,366.945 331.549 C 367.186 331.391,367.246 331.259,367.080 331.256 C 366.913 331.253,367.026 330.767,367.330 330.176 C 368.788 327.343,372.071 316.610,372.497 313.281 C 372.594 312.529,372.856 310.886,373.079 309.630 C 374.742 300.287,374.732 300.902,374.826 204.102 C 374.907 120.940,374.813 107.615,374.077 98.242 C 373.236 87.532,370.175 75.546,366.257 67.617 C 365.503 66.092,365.008 64.841,365.158 64.838 C 365.307 64.834,365.248 64.703,365.025 64.545 C 364.802 64.387,363.804 62.939,362.806 61.328 C 357.333 52.489,348.018 43.184,338.672 37.221 C 336.358 35.745,326.563 30.773,326.563 31.076 C 326.563 31.146,325.288 30.766,323.730 30.232 C 320.687 29.187,315.502 27.842,313.281 27.521 C 312.529 27.412,311.600 27.226,311.217 27.107 C 310.833 26.989,309.955 26.835,309.264 26.766 C 308.573 26.697,306.162 26.431,303.906 26.175 C 301.650 25.919,299.014 25.626,298.047 25.524 C 296.156 25.325,113.342 25.063,108.789 25.254 M295.508 26.565 C 322.104 28.227,337.813 34.660,352.366 49.849 C 366.166 64.252,371.804 78.773,373.428 104.095 C 373.965 112.466,373.971 286.926,373.435 295.508 C 371.839 321.048,366.175 335.738,352.366 350.151 C 337.768 365.388,322.151 371.803,295.703 373.428 C 287.036 373.961,113.008 373.967,104.492 373.435 C 78.930 371.838,64.274 366.187,49.849 352.366 C 34.678 337.830,28.263 322.270,26.572 295.905 C 26.035 287.534,26.029 113.074,26.565 104.492 C 28.161 78.952,33.825 64.262,47.634 49.849 C 61.972 34.884,78.055 28.170,103.320 26.601 C 110.926 26.128,287.991 26.096,295.508 26.565 " stroke="none" fill="#a4a4a4" fill-rule="evenodd"></path><path id="path4" d="M107.715 25.283 C 108.413 25.369,109.556 25.369,110.254 25.283 C 110.952 25.196,110.381 25.125,108.984 25.125 C 107.588 25.125,107.017 25.196,107.715 25.283 M289.746 25.283 C 290.444 25.369,291.587 25.369,292.285 25.283 C 292.983 25.196,292.412 25.125,291.016 25.125 C 289.619 25.125,289.048 25.196,289.746 25.283 M100.879 25.660 C 101.255 25.758,101.870 25.758,102.246 25.660 C 102.622 25.562,102.314 25.481,101.563 25.481 C 100.811 25.481,100.503 25.562,100.879 25.660 M297.363 25.660 C 297.739 25.758,298.354 25.758,298.730 25.660 C 299.106 25.562,298.799 25.481,298.047 25.481 C 297.295 25.481,296.987 25.562,297.363 25.660 M109.284 26.455 C 109.986 26.542,111.041 26.540,111.628 26.451 C 112.215 26.362,111.641 26.291,110.352 26.293 C 109.063 26.295,108.582 26.368,109.284 26.455 M288.184 26.454 C 288.882 26.541,290.024 26.541,290.723 26.454 C 291.421 26.368,290.850 26.297,289.453 26.297 C 288.057 26.297,287.485 26.368,288.184 26.454 M101.660 26.832 C 102.036 26.930,102.651 26.930,103.027 26.832 C 103.403 26.734,103.096 26.653,102.344 26.653 C 101.592 26.653,101.284 26.734,101.660 26.832 M296.973 26.832 C 297.349 26.930,297.964 26.930,298.340 26.832 C 298.716 26.734,298.408 26.653,297.656 26.653 C 296.904 26.653,296.597 26.734,296.973 26.832 M330.892 32.961 C 331.290 33.324,335.156 35.149,335.156 34.974 C 335.156 34.754,331.426 32.813,331.003 32.813 C 330.852 32.813,330.802 32.879,330.892 32.961 M338.867 37.312 C 339.297 37.662,340.000 38.120,340.430 38.331 L 341.211 38.715 340.430 38.079 C 340.000 37.729,339.297 37.270,338.867 37.059 L 338.086 36.676 338.867 37.312 M52.124 43.848 L 50.977 45.117 52.246 43.970 C 53.429 42.900,53.695 42.578,53.393 42.578 C 53.326 42.578,52.755 43.149,52.124 43.848 M346.484 42.700 C 346.484 42.768,347.056 43.339,347.754 43.970 L 349.023 45.117 347.876 43.848 C 346.807 42.664,346.484 42.399,346.484 42.700 M47.645 47.949 L 45.117 50.586 47.754 48.058 C 49.204 46.668,50.391 45.481,50.391 45.421 C 50.391 45.134,49.993 45.500,47.645 47.949 M351.953 47.852 C 353.337 49.248,354.558 50.391,354.665 50.391 C 354.772 50.391,353.728 49.248,352.344 47.852 C 350.960 46.455,349.739 45.313,349.632 45.313 C 349.525 45.313,350.569 46.455,351.953 47.852 M33.965 66.444 C 33.516 67.324,33.216 68.111,33.298 68.193 C 33.379 68.275,33.829 67.555,34.296 66.593 C 35.361 64.402,35.073 64.272,33.965 66.444 M366.043 66.992 C 366.043 67.207,366.295 67.822,366.602 68.359 C 366.909 68.896,367.160 69.160,367.160 68.945 C 367.160 68.730,366.909 68.115,366.602 67.578 C 366.295 67.041,366.043 66.777,366.043 66.992 M128.809 83.479 C 129.292 83.572,130.083 83.572,130.566 83.479 C 131.050 83.386,130.654 83.310,129.688 83.310 C 128.721 83.310,128.325 83.386,128.809 83.479 M283.462 83.830 C 249.553 89.120,222.694 107.167,209.549 133.496 C 208.020 136.557,206.629 138.930,206.457 138.769 C 206.285 138.608,206.341 138.856,206.582 139.319 C 206.929 139.987,206.865 140.513,206.274 141.858 C 205.863 142.791,205.150 145.040,204.688 146.856 C 204.227 148.672,203.685 150.464,203.485 150.839 C 202.947 151.844,200.476 160.878,199.387 165.820 C 197.682 173.559,196.910 177.128,196.664 178.418 C 196.467 179.453,196.230 179.697,195.379 179.741 C 194.434 179.789,194.420 179.810,195.232 179.965 C 195.851 180.084,196.068 180.339,195.934 180.791 C 195.040 183.803,193.032 203.520,192.589 213.633 C 192.332 219.488,192.103 221.688,191.725 221.927 C 190.826 222.498,191.788 222.290,193.035 221.645 C 194.486 220.895,205.638 220.739,206.967 221.450 C 207.404 221.684,207.833 221.875,207.920 221.875 C 208.008 221.875,208.197 218.579,208.341 214.551 C 208.630 206.455,209.701 195.106,210.912 187.305 C 211.346 184.512,211.705 182.027,211.710 181.784 C 211.715 181.524,212.809 181.237,214.355 181.089 C 254.753 177.221,285.895 149.391,295.698 108.398 C 300.946 86.450,298.475 81.489,283.462 83.830 M119.813 85.187 C 119.011 85.848,118.170 86.771,117.945 87.238 C 117.665 87.817,117.803 87.740,118.382 86.996 C 118.848 86.396,119.865 85.473,120.643 84.945 C 121.420 84.417,121.880 83.984,121.664 83.984 C 121.448 83.984,120.615 84.525,119.813 85.187 M136.133 84.375 C 136.777 84.539,137.744 84.673,138.281 84.673 C 139.152 84.673,139.131 84.641,138.086 84.375 C 137.441 84.211,136.475 84.077,135.938 84.077 C 135.066 84.077,135.087 84.109,136.133 84.375 M147.656 86.885 C 147.656 87.119,151.697 88.277,151.880 88.094 C 151.962 88.011,151.102 87.668,149.968 87.331 C 147.688 86.654,147.656 86.648,147.656 86.885 M155.859 89.649 C 155.859 89.849,157.898 90.747,159.409 91.213 C 159.927 91.373,160.264 91.408,160.156 91.292 C 159.856 90.968,155.859 89.439,155.859 89.649 M162.142 92.336 C 162.540 92.699,166.406 94.524,166.406 94.349 C 166.406 94.129,162.676 92.188,162.253 92.188 C 162.102 92.188,162.052 92.254,162.142 92.336 M116.909 95.898 C 116.912 96.973,116.987 97.366,117.077 96.772 C 117.167 96.178,117.165 95.299,117.072 94.819 C 116.979 94.338,116.906 94.824,116.909 95.898 M284.689 95.113 C 287.816 97.744,287.367 98.406,272.615 112.891 L 259.686 125.586 268.905 125.475 C 274.891 125.402,278.398 125.509,278.902 125.779 C 281.021 126.913,281.320 130.313,279.456 132.066 C 278.413 133.047,274.219 133.309,255.469 133.568 L 251.367 133.625 245.767 139.078 L 240.167 144.531 249.801 144.531 L 259.435 144.531 260.577 145.673 C 261.786 146.882,262.078 148.599,261.317 150.022 C 260.393 151.747,259.432 151.876,245.356 152.176 L 231.959 152.461 223.550 160.703 C 212.558 171.477,212.222 171.675,209.531 168.984 C 206.923 166.376,206.934 166.358,217.971 155.504 L 227.739 145.898 228.333 143.164 C 228.660 141.660,229.533 137.354,230.273 133.594 C 232.819 120.659,233.053 119.939,234.990 119.056 C 236.546 118.348,238.682 119.084,239.588 120.641 L 240.348 121.946 239.270 128.063 C 238.677 131.427,238.025 134.497,237.821 134.885 C 236.813 136.799,238.113 135.882,242.420 131.641 L 247.145 126.989 247.837 122.776 C 248.217 120.459,248.672 118.183,248.848 117.720 C 249.025 117.257,249.722 113.827,250.399 110.099 C 252.015 101.191,253.323 98.986,256.516 99.787 C 259.611 100.564,260.112 103.810,258.175 110.547 C 257.959 111.299,257.544 113.199,257.253 114.769 L 256.723 117.623 259.318 115.175 C 260.746 113.828,265.430 109.263,269.727 105.029 C 281.461 93.466,282.172 92.995,284.689 95.113 M167.578 95.076 C 167.578 95.169,168.373 95.690,169.345 96.233 C 170.317 96.777,171.008 97.053,170.881 96.847 C 170.628 96.437,167.578 94.802,167.578 95.076 M25.481 101.563 C 25.481 102.314,25.562 102.622,25.660 102.246 C 25.758 101.870,25.758 101.255,25.660 100.879 C 25.562 100.503,25.481 100.811,25.481 101.563 M374.317 101.758 C 374.322 102.617,374.402 102.923,374.495 102.437 C 374.588 101.951,374.585 101.248,374.487 100.874 C 374.389 100.501,374.313 100.898,374.317 101.758 M26.653 102.344 C 26.653 103.096,26.734 103.403,26.832 103.027 C 26.930 102.651,26.930 102.036,26.832 101.660 C 26.734 101.284,26.653 101.592,26.653 102.344 M373.138 102.344 C 373.138 103.096,373.218 103.403,373.316 103.027 C 373.414 102.651,373.414 102.036,373.316 101.660 C 373.218 101.284,373.138 101.592,373.138 102.344 M118.059 106.250 C 118.059 107.002,118.140 107.310,118.238 106.934 C 118.336 106.558,118.336 105.942,118.238 105.566 C 118.140 105.190,118.059 105.498,118.059 106.250 M25.125 108.984 C 25.125 110.381,25.196 110.952,25.283 110.254 C 25.369 109.556,25.369 108.413,25.283 107.715 C 25.196 107.017,25.125 107.588,25.125 108.984 M187.317 110.127 C 189.043 111.969,191.304 114.443,192.342 115.625 C 193.868 117.363,193.978 117.439,192.915 116.022 C 192.193 115.059,189.932 112.585,187.891 110.524 C 184.335 106.933,184.311 106.917,187.317 110.127 M374.734 108.984 C 374.734 110.381,374.805 110.952,374.892 110.254 C 374.979 109.556,374.979 108.413,374.892 107.715 C 374.805 107.017,374.734 107.588,374.734 108.984 M118.437 108.398 C 118.437 108.828,118.578 109.619,118.750 110.156 C 118.998 110.930,119.063 110.970,119.063 110.352 C 119.063 109.922,118.922 109.131,118.750 108.594 C 118.502 107.820,118.437 107.780,118.437 108.398 M373.563 110.156 C 373.563 111.553,373.633 112.124,373.720 111.426 C 373.807 110.728,373.807 109.585,373.720 108.887 C 373.633 108.188,373.563 108.760,373.563 110.156 M26.293 110.352 C 26.295 111.641,26.368 112.121,26.455 111.419 C 26.542 110.717,26.540 109.662,26.451 109.075 C 26.362 108.488,26.291 109.063,26.293 110.352 M120.763 117.969 C 120.763 118.291,120.999 119.170,121.289 119.922 C 121.579 120.674,121.816 121.025,121.816 120.703 C 121.816 120.381,121.579 119.502,121.289 118.750 C 120.999 117.998,120.763 117.646,120.763 117.969 M195.313 119.531 C 195.771 120.176,196.235 120.703,196.342 120.703 C 196.450 120.703,196.162 120.176,195.703 119.531 C 195.244 118.887,194.781 118.359,194.673 118.359 C 194.566 118.359,194.854 118.887,195.313 119.531 M198.047 123.438 C 198.506 124.082,198.969 124.609,199.077 124.609 C 199.184 124.609,198.896 124.082,198.438 123.438 C 197.979 122.793,197.515 122.266,197.408 122.266 C 197.300 122.266,197.588 122.793,198.047 123.438 M123.856 126.758 C 123.856 126.973,124.107 127.588,124.414 128.125 C 124.721 128.662,124.972 128.926,124.972 128.711 C 124.972 128.496,124.721 127.881,124.414 127.344 C 124.107 126.807,123.856 126.543,123.856 126.758 M126.172 131.799 C 126.172 132.202,128.156 135.547,128.395 135.547 C 128.502 135.547,128.108 134.712,127.519 133.691 C 126.299 131.578,126.172 131.399,126.172 131.799 M203.939 133.398 C 203.939 133.613,204.276 134.404,204.688 135.156 C 205.099 135.908,205.436 136.348,205.436 136.133 C 205.436 135.918,205.099 135.127,204.688 134.375 C 204.276 133.623,203.939 133.184,203.939 133.398 M129.247 137.305 C 129.458 137.734,129.917 138.438,130.266 138.867 L 130.902 139.648 130.519 138.867 C 130.308 138.438,129.849 137.734,129.499 137.305 L 128.863 136.523 129.247 137.305 M138.977 150.293 C 140.479 151.958,142.118 153.672,142.619 154.102 C 143.119 154.531,141.969 153.169,140.062 151.074 C 138.156 148.979,136.517 147.266,136.421 147.266 C 136.324 147.266,137.475 148.628,138.977 150.293 M144.701 155.788 C 145.332 156.471,146.914 157.838,148.217 158.825 C 150.659 160.676,149.974 160.000,145.898 156.537 C 144.609 155.442,144.071 155.105,144.701 155.788 M152.607 162.141 C 153.091 162.727,155.469 164.223,155.469 163.941 C 155.469 163.850,154.722 163.283,153.809 162.681 C 152.896 162.079,152.355 161.836,152.607 162.141 M157.031 165.019 C 157.031 165.126,157.559 165.487,158.203 165.820 C 158.848 166.154,159.375 166.338,159.375 166.231 C 159.375 166.124,158.848 165.763,158.203 165.430 C 157.559 165.096,157.031 164.912,157.031 165.019 M161.719 167.772 C 161.719 168.031,170.360 172.349,170.533 172.176 C 170.608 172.100,168.656 171.036,166.194 169.810 C 163.733 168.585,161.719 167.668,161.719 167.772 M175.391 174.153 C 175.713 174.352,176.416 174.632,176.953 174.776 C 177.632 174.958,177.751 174.927,177.344 174.675 C 177.021 174.476,176.318 174.196,175.781 174.052 C 175.103 173.870,174.983 173.901,175.391 174.153 M182.617 176.772 C 183.262 177.067,184.053 177.303,184.375 177.296 C 184.697 177.290,184.346 177.047,183.594 176.758 C 181.810 176.071,181.109 176.081,182.617 176.772 M264.057 220.901 C 265.612 222.775,265.743 222.896,265.318 222.066 C 265.097 221.634,264.504 220.932,264.001 220.506 C 263.118 219.759,263.120 219.773,264.057 220.901 M127.455 223.633 C 127.458 224.707,127.534 225.100,127.624 224.506 C 127.714 223.913,127.711 223.034,127.619 222.553 C 127.526 222.073,127.453 222.559,127.455 223.633 M179.590 226.198 C 178.784 226.624,178.125 227.059,178.125 227.166 C 178.125 227.272,178.828 227.001,179.688 226.563 C 180.547 226.124,181.250 225.681,181.250 225.578 C 181.250 225.322,181.247 225.323,179.590 226.198 M219.531 225.570 C 219.531 225.677,220.234 226.124,221.094 226.563 C 221.953 227.001,222.656 227.272,222.656 227.164 C 222.656 227.057,221.953 226.610,221.094 226.172 C 220.234 225.733,219.531 225.463,219.531 225.570 M250.397 227.767 C 250.400 228.286,250.575 228.975,250.787 229.297 C 251.057 229.709,251.096 229.478,250.920 228.516 C 250.611 226.831,250.389 226.513,250.397 227.767 M225.000 228.638 C 225.000 228.735,225.645 229.306,226.434 229.907 C 227.223 230.509,227.745 230.802,227.594 230.558 C 227.285 230.058,225.000 228.367,225.000 228.638 M279.266 229.785 C 279.150 230.625,279.209 231.103,279.406 230.907 C 279.594 230.718,279.686 230.059,279.609 229.442 C 279.480 228.409,279.453 228.437,279.266 229.785 M251.563 230.982 C 251.563 231.049,252.134 231.620,252.832 232.251 L 254.102 233.398 252.954 232.129 C 251.885 230.946,251.563 230.680,251.563 230.982 M274.732 232.129 C 275.142 232.505,275.941 232.795,276.508 232.773 C 277.453 232.736,277.434 232.708,276.272 232.432 C 275.575 232.266,274.776 231.977,274.496 231.788 C 274.216 231.600,274.322 231.753,274.732 232.129 M166.776 236.621 L 165.430 238.086 166.895 236.740 C 168.258 235.487,168.539 235.156,168.241 235.156 C 168.175 235.156,167.516 235.815,166.776 236.621 M233.594 236.523 C 234.323 237.275,235.007 237.891,235.114 237.891 C 235.222 237.891,234.713 237.275,233.984 236.523 C 233.256 235.771,232.571 235.156,232.464 235.156 C 232.357 235.156,232.865 235.771,233.594 236.523 M164.453 239.453 C 163.994 240.098,163.707 240.625,163.814 240.625 C 163.921 240.625,164.385 240.098,164.844 239.453 C 165.303 238.809,165.590 238.281,165.483 238.281 C 165.375 238.281,164.912 238.809,164.453 239.453 M279.266 244.629 C 279.150 245.468,279.209 245.947,279.406 245.750 C 279.594 245.562,279.686 244.903,279.609 244.286 C 279.480 243.253,279.453 243.280,279.266 244.629 M153.813 247.542 C 154.299 247.635,155.002 247.632,155.376 247.534 C 155.749 247.436,155.352 247.360,154.492 247.364 C 153.633 247.368,153.327 247.448,153.813 247.542 M262.695 252.156 C 263.125 252.505,263.828 252.964,264.258 253.175 L 265.039 253.559 264.258 252.923 C 263.828 252.573,263.125 252.114,262.695 251.903 L 261.914 251.519 262.695 252.156 M273.046 261.621 C 273.557 262.319,274.036 262.891,274.111 262.891 C 274.407 262.891,273.439 261.426,272.798 260.905 C 272.376 260.563,272.471 260.836,273.046 261.621 M285.254 268.629 C 285.630 268.727,286.245 268.727,286.621 268.629 C 286.997 268.530,286.689 268.450,285.938 268.450 C 285.186 268.450,284.878 268.530,285.254 268.629 M105.566 269.723 C 104.868 270.026,104.297 270.362,104.297 270.469 C 104.297 270.657,107.059 269.608,107.389 269.295 C 107.731 268.971,106.785 269.194,105.566 269.723 M118.750 269.271 C 118.750 269.372,119.317 269.653,120.011 269.894 C 120.704 270.136,121.099 270.173,120.890 269.976 C 120.445 269.560,118.750 269.002,118.750 269.271 M300.781 274.023 C 301.510 274.775,302.194 275.391,302.302 275.391 C 302.409 275.391,301.901 274.775,301.172 274.023 C 300.443 273.271,299.759 272.656,299.651 272.656 C 299.544 272.656,300.052 273.271,300.781 274.023 M26.297 289.844 C 26.297 291.240,26.368 291.812,26.454 291.113 C 26.541 290.415,26.541 289.272,26.454 288.574 C 26.368 287.876,26.297 288.447,26.297 289.844 M373.559 289.648 C 373.561 290.938,373.634 291.418,373.721 290.716 C 373.808 290.014,373.806 288.959,373.717 288.372 C 373.627 287.785,373.556 288.359,373.559 289.648 M25.125 291.016 C 25.125 292.412,25.196 292.983,25.283 292.285 C 25.369 291.587,25.369 290.444,25.283 289.746 C 25.196 289.048,25.125 289.619,25.125 291.016 M374.734 291.016 C 374.734 292.412,374.805 292.983,374.892 292.285 C 374.979 291.587,374.979 290.444,374.892 289.746 C 374.805 289.048,374.734 289.619,374.734 291.016 M26.653 297.656 C 26.653 298.408,26.734 298.716,26.832 298.340 C 26.930 297.964,26.930 297.349,26.832 296.973 C 26.734 296.597,26.653 296.904,26.653 297.656 M373.138 297.656 C 373.138 298.408,373.218 298.716,373.316 298.340 C 373.414 297.964,373.414 297.349,373.316 296.973 C 373.218 296.597,373.138 296.904,373.138 297.656 M25.481 298.438 C 25.481 299.189,25.562 299.497,25.660 299.121 C 25.758 298.745,25.758 298.130,25.660 297.754 C 25.562 297.378,25.481 297.686,25.481 298.438 M374.309 298.438 C 374.309 299.189,374.390 299.497,374.488 299.121 C 374.586 298.745,374.586 298.130,374.488 297.754 C 374.390 297.378,374.309 297.686,374.309 298.438 M300.561 300.488 L 299.414 301.758 300.684 300.611 C 301.382 299.979,301.953 299.408,301.953 299.341 C 301.953 299.039,301.631 299.305,300.561 300.488 M125.561 300.879 L 124.414 302.148 125.779 300.977 C 126.530 300.332,127.219 299.761,127.309 299.707 C 127.400 299.653,127.302 299.609,127.091 299.609 C 126.881 299.609,126.192 300.181,125.561 300.879 M269.518 304.590 L 267.383 306.836 269.629 304.701 C 271.716 302.717,272.054 302.344,271.764 302.344 C 271.703 302.344,270.692 303.354,269.518 304.590 M295.117 303.928 C 294.258 304.334,293.783 304.672,294.062 304.677 C 294.631 304.689,296.875 303.598,296.875 303.310 C 296.875 303.082,296.991 303.041,295.117 303.928 M177.323 305.762 L 175.977 307.227 177.535 305.859 C 178.392 305.107,179.168 304.448,179.260 304.395 C 179.352 304.341,179.256 304.297,179.048 304.297 C 178.839 304.297,178.063 304.956,177.323 305.762 M220.901 304.683 C 220.763 304.906,220.924 304.969,221.283 304.831 C 221.626 304.699,222.291 304.920,222.768 305.324 L 223.633 306.055 222.889 305.176 C 222.100 304.244,221.296 304.045,220.901 304.683 M286.822 305.749 C 287.416 305.839,288.294 305.836,288.775 305.744 C 289.255 305.651,288.770 305.578,287.695 305.580 C 286.621 305.583,286.228 305.659,286.822 305.749 M262.305 309.971 C 261.445 310.500,260.897 310.934,261.087 310.935 C 261.487 310.938,264.063 309.391,264.063 309.148 C 264.063 308.900,263.985 308.936,262.305 309.971 M195.025 309.655 C 195.619 309.745,196.498 309.743,196.978 309.650 C 197.458 309.557,196.973 309.484,195.898 309.487 C 194.824 309.490,194.431 309.566,195.025 309.655 M204.009 309.655 C 204.603 309.745,205.482 309.743,205.962 309.650 C 206.443 309.557,205.957 309.484,204.883 309.487 C 203.809 309.490,203.416 309.566,204.009 309.655 M199.512 310.041 C 199.995 310.134,200.786 310.134,201.270 310.041 C 201.753 309.948,201.357 309.872,200.391 309.872 C 199.424 309.872,199.028 309.948,199.512 310.041 M165.234 312.695 C 164.482 312.985,164.131 313.227,164.453 313.234 C 164.775 313.241,165.566 313.005,166.211 312.709 C 167.720 312.019,167.018 312.008,165.234 312.695 M143.945 312.891 C 144.375 313.075,144.990 313.226,145.313 313.226 C 145.682 313.226,145.610 313.102,145.117 312.891 C 144.688 312.706,144.072 312.555,143.750 312.555 C 143.381 312.555,143.453 312.679,143.945 312.891 M248.926 314.332 C 249.302 314.430,249.917 314.430,250.293 314.332 C 250.669 314.234,250.361 314.153,249.609 314.153 C 248.857 314.153,248.550 314.234,248.926 314.332 M32.813 331.003 C 32.813 331.426,34.754 335.156,34.974 335.156 C 35.082 335.156,34.706 334.233,34.139 333.105 C 33.050 330.936,32.813 330.560,32.813 331.003 M365.704 333.407 C 365.236 334.369,364.936 335.156,365.036 335.156 C 365.301 335.156,366.879 331.983,366.702 331.807 C 366.621 331.725,366.171 332.445,365.704 333.407 M47.266 351.758 C 48.650 353.154,49.870 354.297,49.977 354.297 C 50.085 354.297,49.040 353.154,47.656 351.758 C 46.272 350.361,45.052 349.219,44.944 349.219 C 44.837 349.219,45.882 350.361,47.266 351.758 M351.942 352.246 L 349.414 354.883 352.051 352.355 C 353.501 350.965,354.688 349.778,354.688 349.718 C 354.688 349.431,354.290 349.797,351.942 352.246 M51.172 355.200 C 51.172 355.268,51.743 355.839,52.441 356.470 L 53.711 357.617 52.564 356.348 C 51.494 355.164,51.172 354.899,51.172 355.200 M64.844 365.037 C 64.844 365.300,68.798 367.270,68.973 367.094 C 69.053 367.014,68.157 366.477,66.981 365.901 C 65.806 365.324,64.844 364.935,64.844 365.037 M101.860 373.323 C 102.346 373.417,103.049 373.413,103.423 373.315 C 103.796 373.217,103.398 373.141,102.539 373.145 C 101.680 373.150,101.374 373.230,101.860 373.323 M296.973 373.316 C 297.349 373.414,297.964 373.414,298.340 373.316 C 298.716 373.218,298.408 373.138,297.656 373.138 C 296.904 373.138,296.597 373.218,296.973 373.316 M109.284 373.721 C 109.986 373.808,111.041 373.806,111.628 373.717 C 112.215 373.627,111.641 373.556,110.352 373.559 C 109.063 373.561,108.582 373.634,109.284 373.721 M288.581 373.721 C 289.283 373.808,290.338 373.806,290.925 373.717 C 291.512 373.627,290.938 373.556,289.648 373.559 C 288.359 373.561,287.879 373.634,288.581 373.721 M101.270 374.499 C 101.860 374.588,102.827 374.588,103.418 374.499 C 104.009 374.409,103.525 374.336,102.344 374.336 C 101.162 374.336,100.679 374.409,101.270 374.499 M297.563 374.495 C 298.049 374.588,298.752 374.585,299.126 374.487 C 299.499 374.389,299.102 374.313,298.242 374.317 C 297.383 374.322,297.077 374.402,297.563 374.495 " stroke="none" fill="#bcc5a2" fill-rule="evenodd"></path></g></svg>