<svg id="svg" version="1.1" xmlns="http://www.w3.org/2000/svg" xmlns:xlink="http://www.w3.org/1999/xlink" width="400" height="350.7642799678198" viewBox="0, 0, 400,350.7642799678198"><g id="svgg"><path id="path0" d="M354.304 174.295 C 354.304 206.322,354.363 207.591,356.107 212.951 C 358.732 221.016,364.330 225.795,372.213 226.699 L 374.192 226.926 374.368 226.013 C 374.465 225.511,374.633 224.371,374.742 223.480 L 374.941 221.860 372.640 221.465 C 367.120 220.519,363.659 217.288,361.885 211.424 C 360.537 206.966,360.431 204.250,360.425 173.854 L 360.418 144.811 357.361 144.811 L 354.304 144.811 354.304 174.295 M33.144 149.558 C 33.143 149.690,32.636 156.967,32.016 165.728 C 31.397 174.489,30.671 184.916,30.404 188.898 C 30.138 192.880,29.487 202.316,28.958 209.866 C 28.429 217.416,27.997 224.114,27.997 224.749 L 27.997 225.905 30.893 225.905 C 33.003 225.905,33.785 225.796,33.775 225.503 C 33.730 224.183,38.435 159.092,38.589 158.913 C 38.693 158.793,44.302 173.781,51.054 192.220 L 63.332 225.744 65.398 225.838 L 67.465 225.932 79.799 192.286 C 86.583 173.780,92.198 158.704,92.276 158.782 C 92.386 158.891,97.142 223.648,97.177 225.503 C 97.182 225.794,97.982 225.905,100.080 225.905 C 102.184 225.905,102.976 225.795,102.975 225.503 C 102.975 225.282,101.816 208.447,100.402 188.093 C 98.987 167.739,97.829 150.683,97.828 150.191 L 97.828 149.296 94.072 149.386 L 90.317 149.477 77.912 183.663 C 71.089 202.466,65.409 217.671,65.290 217.453 C 65.134 217.168,44.310 159.978,40.802 150.201 L 40.484 149.316 36.815 149.316 C 34.797 149.316,33.145 149.425,33.144 149.558 M126.468 170.760 C 123.824 171.161,117.520 172.638,117.234 172.924 C 117.140 173.019,117.814 178.351,117.943 178.526 C 117.978 178.574,119.773 178.104,121.931 177.483 C 132.550 174.427,138.414 174.256,143.204 176.862 C 147.170 179.021,150.008 184.240,150.085 189.518 L 150.121 191.955 144.489 192.163 C 123.359 192.943,113.511 199.672,113.967 213.018 C 114.476 227.887,135.858 232.472,148.395 220.400 L 150.603 218.274 150.909 219.435 C 151.077 220.073,151.523 221.836,151.899 223.351 C 152.842 227.150,152.602 226.962,155.713 226.338 C 158.327 225.813,158.368 225.791,158.154 224.970 C 156.675 219.285,156.643 218.871,156.406 202.414 C 156.148 184.510,156.071 183.874,153.593 179.158 C 149.573 171.509,140.355 168.654,126.468 170.760 M192.186 170.700 C 187.936 171.729,184.008 174.438,181.105 178.342 L 179.408 180.624 179.000 176.726 C 178.397 170.964,178.564 171.199,175.068 171.199 C 173.471 171.199,172.167 171.235,172.171 171.279 C 172.175 171.323,172.410 173.170,172.693 175.382 C 173.110 178.631,173.237 183.879,173.356 202.655 L 173.503 225.905 176.534 225.905 L 179.566 225.905 179.572 207.965 L 179.579 190.024 180.330 187.896 C 185.619 172.916,206.228 170.740,211.419 184.615 C 212.880 188.519,213.033 190.819,213.033 208.892 L 213.033 225.905 216.090 225.905 L 219.147 225.905 219.145 208.447 C 219.143 186.968,218.912 184.906,215.863 179.159 C 212.143 172.147,201.667 168.404,192.186 170.700 M307.321 170.760 C 304.677 171.161,298.373 172.638,298.087 172.924 C 297.992 173.019,298.667 178.351,298.796 178.526 C 298.831 178.574,300.625 178.104,302.784 177.483 C 313.402 174.427,319.267 174.256,324.056 176.862 C 328.023 179.021,330.861 184.240,330.938 189.518 L 330.973 191.955 325.342 192.163 C 304.212 192.943,294.363 199.672,294.820 213.018 C 295.329 227.887,316.711 232.472,329.248 220.400 L 331.456 218.274 331.762 219.435 C 331.930 220.073,332.375 221.836,332.752 223.351 C 333.695 227.150,333.454 226.962,336.566 226.338 C 339.180 225.813,339.220 225.791,339.007 224.970 C 337.527 219.285,337.495 218.871,337.259 202.414 C 337.001 184.510,336.924 183.874,334.446 179.158 C 330.426 171.509,321.208 168.654,307.321 170.760 M236.204 189.139 C 236.206 210.880,236.381 212.481,239.412 218.486 C 245.314 230.177,266.307 230.132,274.658 218.410 C 276.293 216.116,276.177 216.055,276.831 219.549 C 277.137 221.187,277.687 223.509,278.053 224.709 L 278.718 226.893 279.860 226.678 C 284.933 225.727,284.709 226.041,283.413 221.686 C 281.989 216.897,281.899 215.167,281.899 192.575 L 281.899 171.199 278.842 171.199 L 275.784 171.199 275.784 188.721 C 275.784 210.788,275.693 211.284,270.721 216.231 C 262.218 224.689,249.162 223.828,244.756 214.519 C 242.493 209.737,242.523 210.056,242.397 189.622 L 242.283 171.199 239.243 171.199 L 236.203 171.199 236.204 189.139 M150.225 203.620 L 150.121 209.976 148.994 212.059 C 141.692 225.565,120.982 225.410,120.402 211.845 C 120.010 202.683,129.321 197.433,146.203 197.298 L 150.330 197.265 150.225 203.620 M331.078 203.620 L 330.973 209.976 329.847 212.059 C 322.545 225.565,301.835 225.410,301.255 211.845 C 300.863 202.683,310.174 197.433,327.056 197.298 L 331.183 197.265 331.078 203.620 " stroke="none" fill="#25cc84" fill-rule="evenodd"></path><path id="path1" d="M95.371 43.146 C 62.123 44.360,43.426 50.376,25.742 65.551 C 13.476 76.076,8.249 86.862,6.203 105.873 C 5.312 114.151,5.325 257.976,6.218 266.263 C 8.469 287.167,14.831 298.625,30.789 310.513 C 47.406 322.892,64.764 327.717,96.862 328.877 C 108.687 329.305,290.669 329.305,302.494 328.877 C 337.592 327.608,355.565 321.941,373.615 306.453 C 385.881 295.928,391.107 285.141,393.153 266.130 C 394.042 257.871,394.031 114.055,393.141 105.712 C 390.921 84.902,384.511 73.368,368.568 61.490 C 353.423 50.208,338.404 45.509,310.700 43.385 C 304.960 42.944,106.905 42.725,95.371 43.146 M360.419 172.245 C 360.421 205.453,360.683 209.443,363.193 214.398 C 365.365 218.687,369.403 221.400,373.617 221.400 C 375.180 221.400,375.154 221.330,374.760 224.371 L 374.417 227.030 373.130 226.937 C 365.311 226.373,359.400 221.942,356.520 214.490 C 354.148 208.354,354.207 209.298,354.071 175.141 L 353.949 144.489 357.184 144.489 L 360.418 144.489 360.419 172.245 M41.761 152.294 C 42.339 153.931,47.903 169.291,54.125 186.428 L 65.437 217.587 77.824 183.451 L 90.212 149.316 93.997 149.316 L 97.782 149.316 97.968 151.006 C 98.070 151.935,99.236 168.624,100.560 188.093 C 101.883 207.562,103.028 224.040,103.103 224.710 L 103.240 225.928 100.135 225.836 L 97.029 225.744 94.715 193.403 C 93.442 175.615,92.355 160.571,92.299 159.971 C 92.221 159.140,89.279 166.840,79.944 192.312 L 67.692 225.744 65.463 225.836 L 63.234 225.929 51.006 192.546 L 38.777 159.163 38.529 161.078 C 38.392 162.131,37.344 176.388,36.199 192.759 C 35.055 209.131,34.034 223.286,33.931 224.216 L 33.743 225.905 30.667 225.905 L 27.592 225.905 27.785 224.055 C 27.891 223.037,28.485 214.457,29.105 204.988 C 29.724 195.519,30.448 185.020,30.713 181.657 C 30.977 178.294,31.573 169.823,32.037 162.832 C 32.500 155.841,32.935 149.940,33.003 149.718 C 33.092 149.426,34.163 149.317,36.917 149.318 L 40.708 149.319 41.761 152.294 M143.041 170.727 C 147.964 172.073,151.944 175.313,153.981 179.632 C 156.333 184.619,156.717 188.124,156.719 204.666 C 156.720 216.922,156.923 219.723,158.129 224.196 L 158.580 225.866 156.925 226.223 C 156.014 226.419,154.675 226.662,153.949 226.762 L 152.628 226.945 151.578 222.726 L 150.529 218.506 148.017 220.869 C 136.526 231.680,116.451 228.428,113.900 215.344 C 111.165 201.318,122.549 192.785,145.184 191.894 L 150.333 191.691 150.124 189.731 C 148.719 176.516,140.954 172.692,124.320 177.022 C 121.519 177.751,118.921 178.417,118.546 178.503 C 117.757 178.684,117.626 178.321,117.284 174.986 C 117.021 172.420,116.688 172.658,122.330 171.392 C 129.242 169.842,138.695 169.538,143.041 170.727 M203.256 170.408 C 211.346 171.813,216.589 177.163,218.563 186.027 C 219.194 188.862,219.247 190.255,219.382 207.482 L 219.527 225.905 216.280 225.905 L 213.033 225.905 213.033 210.332 C 213.033 193.977,212.794 189.635,211.697 186.075 C 207.079 171.092,186.593 172.071,180.559 187.564 L 179.726 189.702 179.633 207.804 L 179.540 225.905 176.335 225.905 L 173.130 225.905 173.121 203.781 C 173.117 191.613,172.972 180.209,172.800 178.439 C 172.628 176.669,172.395 174.316,172.281 173.210 L 172.075 171.199 175.155 171.199 C 177.809 171.199,178.259 171.277,178.405 171.762 C 178.763 172.945,179.239 176.577,179.241 178.144 C 179.245 180.372,179.495 180.463,180.713 178.679 C 185.525 171.632,193.487 168.711,203.256 170.408 M323.894 170.727 C 328.817 172.073,332.797 175.313,334.834 179.632 C 337.186 184.619,337.569 188.124,337.571 204.666 C 337.573 216.922,337.775 219.723,338.982 224.196 L 339.433 225.866 337.778 226.223 C 336.867 226.419,335.528 226.662,334.801 226.762 L 333.480 226.945 332.431 222.726 L 331.382 218.506 328.870 220.869 C 317.379 231.680,297.304 228.428,294.753 215.344 C 292.018 201.318,303.402 192.785,326.037 191.894 L 331.186 191.691 330.977 189.731 C 329.571 176.516,321.807 172.692,305.173 177.022 C 302.372 177.751,299.774 178.417,299.399 178.503 C 298.609 178.684,298.479 178.321,298.137 174.986 C 297.874 172.420,297.540 172.658,303.183 171.392 C 310.095 169.842,319.548 169.538,323.894 170.727 M242.409 189.139 C 242.566 210.007,242.744 211.400,245.888 216.300 C 251.285 224.711,266.470 223.211,272.865 213.635 C 275.621 209.507,275.587 209.802,275.712 189.300 L 275.823 171.199 279.022 171.199 L 282.220 171.199 282.220 193.375 C 282.220 217.385,282.243 217.763,284.023 223.106 C 284.484 224.491,284.810 225.669,284.748 225.724 C 284.685 225.779,283.294 226.114,281.656 226.470 L 278.678 227.117 277.885 224.500 C 277.448 223.060,276.935 221.086,276.745 220.113 C 276.554 219.139,276.327 218.005,276.239 217.592 L 276.080 216.841 275.398 217.753 C 267.412 228.418,250.561 230.786,242.172 222.422 C 236.761 217.026,236.132 213.737,235.966 189.944 L 235.835 171.199 239.054 171.199 L 242.274 171.199 242.409 189.139 M143.041 197.487 C 128.087 198.480,120.492 203.127,120.528 211.263 C 120.590 225.278,142.016 225.656,148.929 211.764 L 150.121 209.369 150.226 203.317 L 150.332 197.265 147.491 197.323 C 145.928 197.355,143.926 197.429,143.041 197.487 M323.894 197.487 C 308.939 198.480,301.344 203.127,301.381 211.263 C 301.443 225.278,322.869 225.656,329.782 211.764 L 330.973 209.369 331.079 203.317 L 331.184 197.265 328.344 197.323 C 326.781 197.355,324.779 197.429,323.894 197.487 " stroke="none" fill="#fbfbfb" fill-rule="evenodd"></path><path id="path2" d="M97.488 41.950 C 97.409 42.023,94.956 42.166,92.035 42.268 C 85.242 42.505,76.989 43.196,72.245 43.925 C 70.178 44.242,63.913 45.487,62.269 45.907 C 61.207 46.178,59.976 46.449,59.533 46.508 C 59.091 46.568,58.729 46.639,58.729 46.666 C 58.729 46.692,58.298 46.784,57.771 46.869 C 57.245 46.955,56.661 47.151,56.474 47.307 C 56.287 47.462,55.753 47.658,55.288 47.742 C 54.822 47.827,54.102 48.077,53.689 48.298 C 53.275 48.520,52.900 48.676,52.856 48.646 C 52.716 48.552,52.209 48.707,51.006 49.212 C 50.475 49.435,49.681 49.685,49.243 49.768 C 48.804 49.851,48.369 50.027,48.277 50.159 C 48.129 50.370,46.120 51.289,45.696 51.339 C 45.607 51.349,44.892 51.677,44.107 52.067 C 43.321 52.457,42.501 52.776,42.283 52.776 C 42.066 52.776,41.839 52.922,41.780 53.101 C 41.720 53.279,41.310 53.495,40.869 53.580 C 40.428 53.665,40.018 53.881,39.958 54.060 C 39.899 54.238,39.656 54.385,39.419 54.385 C 39.181 54.385,38.542 54.759,37.997 55.218 C 37.453 55.676,37.007 55.940,37.007 55.805 C 37.007 55.670,36.645 55.900,36.203 56.315 C 35.760 56.731,35.394 56.937,35.388 56.774 C 35.383 56.610,35.231 56.730,35.051 57.039 C 34.870 57.349,34.465 57.603,34.151 57.603 C 33.837 57.603,33.239 57.965,32.824 58.407 C 32.408 58.850,31.892 59.212,31.676 59.212 C 31.460 59.212,31.197 59.438,31.091 59.715 C 30.984 59.991,30.759 60.132,30.590 60.027 C 30.420 59.923,30.125 60.131,29.932 60.490 C 29.740 60.849,29.442 61.142,29.270 61.142 C 29.098 61.142,28.510 61.541,27.963 62.027 C 27.417 62.514,26.864 62.912,26.733 62.912 C 26.603 62.912,25.979 63.419,25.347 64.039 C 23.420 65.928,22.971 66.291,22.561 66.291 C 22.344 66.291,22.256 66.436,22.365 66.613 C 22.475 66.790,22.338 66.935,22.062 66.935 C 21.787 66.935,21.561 67.103,21.561 67.309 C 21.561 67.514,20.428 68.782,19.044 70.125 C 17.660 71.468,16.321 73.037,16.069 73.612 C 15.817 74.187,15.421 74.658,15.188 74.658 C 14.955 74.658,14.841 74.781,14.934 74.931 C 15.026 75.081,14.818 75.510,14.470 75.883 C 14.122 76.256,13.837 76.713,13.837 76.897 C 13.837 77.082,13.620 77.233,13.355 77.233 C 13.065 77.233,12.872 77.530,12.872 77.976 C 12.872 78.384,12.644 79.000,12.366 79.343 C 12.087 79.687,11.964 79.764,12.093 79.516 C 12.244 79.226,12.200 79.143,11.970 79.285 C 11.774 79.406,11.704 79.742,11.815 80.031 C 11.960 80.410,11.898 80.483,11.590 80.293 C 11.346 80.142,11.242 80.155,11.345 80.324 C 11.583 80.708,10.742 82.703,10.343 82.703 C 10.174 82.703,9.850 83.427,9.623 84.312 C 9.396 85.197,9.078 85.921,8.915 85.921 C 8.753 85.921,8.702 86.137,8.804 86.400 C 8.907 86.668,8.824 86.845,8.616 86.802 C 8.411 86.760,8.192 87.015,8.127 87.369 C 8.031 87.898,8.070 87.927,8.345 87.530 C 8.581 87.189,8.680 87.168,8.684 87.460 C 8.686 87.687,8.487 87.949,8.242 88.044 C 7.983 88.143,7.863 88.478,7.957 88.838 C 8.047 89.181,7.963 89.461,7.771 89.461 C 7.579 89.461,7.512 89.696,7.622 89.984 C 7.741 90.293,7.615 90.622,7.312 90.792 C 6.979 90.978,6.854 91.364,6.952 91.904 C 7.046 92.422,6.978 92.654,6.769 92.525 C 6.586 92.412,6.436 92.461,6.436 92.633 C 6.436 92.806,6.602 93.002,6.804 93.070 C 7.071 93.159,7.055 93.409,6.745 93.982 C 6.294 94.818,6.049 95.912,6.047 97.104 C 6.047 97.502,5.908 97.828,5.739 97.828 C 5.571 97.828,5.522 97.973,5.632 98.150 C 5.741 98.327,5.661 98.471,5.453 98.471 C 5.187 98.471,5.141 98.908,5.298 99.954 C 5.437 100.881,5.404 101.364,5.210 101.244 C 5.027 101.131,4.894 101.681,4.887 102.578 C 4.881 103.417,4.853 104.175,4.825 104.264 C 4.796 104.352,4.692 104.787,4.593 105.229 C 4.251 106.749,4.219 262.298,4.559 264.843 C 4.737 266.171,4.868 268.017,4.850 268.946 C 4.831 269.906,4.959 270.636,5.147 270.636 C 5.341 270.636,5.427 271.229,5.357 272.075 C 5.291 272.867,5.362 273.438,5.515 273.344 C 5.667 273.249,5.811 273.398,5.833 273.674 C 5.855 273.950,5.923 274.646,5.984 275.221 C 6.046 275.796,6.109 276.518,6.125 276.824 C 6.142 277.130,6.281 277.458,6.434 277.553 C 6.588 277.648,6.645 278.101,6.562 278.561 C 6.461 279.118,6.602 279.542,6.986 279.836 C 7.449 280.191,7.478 280.333,7.133 280.561 C 6.790 280.787,6.814 280.886,7.250 281.053 C 7.604 281.189,7.737 281.488,7.629 281.903 C 7.537 282.254,7.596 282.542,7.760 282.542 C 7.923 282.542,7.961 282.926,7.843 283.395 C 7.694 283.990,7.739 284.179,7.994 284.022 C 8.232 283.875,8.290 283.977,8.161 284.313 C 8.042 284.625,8.236 285.085,8.647 285.469 C 9.234 286.016,9.461 286.489,9.289 286.806 C 9.264 286.850,9.554 287.464,9.932 288.169 C 10.310 288.874,10.619 289.635,10.619 289.858 C 10.619 290.082,10.749 290.265,10.907 290.265 C 11.065 290.265,11.280 290.490,11.386 290.765 C 11.505 291.076,11.446 291.183,11.227 291.048 C 10.986 290.899,10.991 291.044,11.242 291.514 C 11.443 291.889,11.747 292.196,11.918 292.196 C 12.089 292.196,12.228 292.398,12.228 292.645 C 12.228 292.891,12.462 293.183,12.748 293.292 C 13.073 293.417,13.206 293.726,13.102 294.120 C 13.012 294.466,13.054 294.717,13.196 294.679 C 13.484 294.602,15.447 297.175,15.447 297.630 C 15.447 297.789,15.664 298.003,15.929 298.105 C 16.195 298.207,16.412 298.497,16.412 298.749 C 16.412 299.001,16.629 299.290,16.895 299.392 C 17.160 299.494,17.377 299.765,17.377 299.995 C 17.377 300.225,18.024 300.975,18.815 301.662 C 19.605 302.350,20.189 303.014,20.112 303.139 C 20.035 303.263,20.329 303.528,20.766 303.727 C 21.203 303.926,21.561 304.309,21.561 304.579 C 21.561 304.848,21.777 305.068,22.041 305.068 C 22.305 305.068,22.702 305.358,22.923 305.712 C 23.144 306.066,23.515 306.356,23.749 306.356 C 23.982 306.356,24.094 306.484,23.997 306.641 C 23.900 306.798,24.123 307.005,24.493 307.102 C 24.920 307.214,25.077 307.421,24.922 307.671 C 24.776 307.908,24.813 307.981,25.016 307.856 C 25.201 307.742,25.588 308.008,25.876 308.448 C 26.164 308.888,26.524 309.212,26.676 309.169 C 26.828 309.126,27.403 309.489,27.954 309.976 C 28.506 310.463,29.098 310.861,29.270 310.861 C 29.442 310.861,29.740 311.154,29.932 311.513 C 30.125 311.872,30.420 312.080,30.590 311.976 C 30.759 311.871,30.984 312.012,31.091 312.289 C 31.197 312.565,31.464 312.792,31.685 312.792 C 31.906 312.792,32.460 313.138,32.918 313.562 C 33.375 313.986,33.831 314.252,33.930 314.152 C 34.030 314.053,34.111 314.141,34.111 314.347 C 34.111 314.553,34.328 314.722,34.594 314.722 C 34.859 314.722,35.076 314.876,35.076 315.063 C 35.076 315.251,35.205 315.325,35.362 315.228 C 35.519 315.131,35.826 315.267,36.045 315.530 C 36.263 315.794,36.596 316.010,36.785 316.010 C 36.973 316.010,37.426 316.288,37.791 316.629 C 38.156 316.970,38.672 317.296,38.937 317.353 C 39.202 317.411,39.568 317.647,39.750 317.878 C 39.933 318.109,40.295 318.332,40.556 318.374 C 40.817 318.415,41.880 318.842,42.919 319.321 C 43.958 319.801,44.936 320.193,45.091 320.193 C 45.247 320.193,45.374 320.362,45.374 320.569 C 45.374 320.775,45.468 320.850,45.583 320.736 C 45.697 320.621,46.313 320.806,46.950 321.147 C 47.588 321.489,49.195 322.142,50.523 322.599 C 51.850 323.056,53.154 323.522,53.419 323.634 C 53.685 323.746,54.010 323.869,54.143 323.906 C 54.276 323.944,54.421 324.003,54.465 324.038 C 54.509 324.074,54.896 324.167,55.325 324.246 C 55.753 324.325,56.273 324.530,56.481 324.702 C 56.688 324.874,56.949 324.923,57.061 324.811 C 57.173 324.698,57.508 324.808,57.805 325.055 C 58.102 325.301,58.395 325.467,58.457 325.422 C 58.518 325.378,58.604 325.354,58.648 325.369 C 58.693 325.383,59.019 325.443,59.372 325.501 C 59.726 325.559,60.324 325.680,60.701 325.770 C 64.005 326.560,68.658 327.525,70.314 327.764 C 71.022 327.866,71.891 327.997,72.245 328.055 C 72.599 328.113,73.757 328.256,74.819 328.373 C 75.881 328.490,77.257 328.654,77.876 328.739 C 79.029 328.896,79.655 328.956,84.956 329.419 C 88.944 329.768,310.401 329.768,314.401 329.420 C 320.579 328.882,323.038 328.636,324.537 328.407 C 325.068 328.325,326.444 328.115,327.595 327.939 C 331.375 327.361,337.067 326.222,338.823 325.691 C 339.423 325.509,340.029 325.431,340.168 325.517 C 340.308 325.604,340.515 325.525,340.628 325.342 C 340.740 325.159,340.958 325.087,341.110 325.181 C 341.263 325.275,341.480 325.203,341.593 325.020 C 341.706 324.837,341.939 324.775,342.112 324.882 C 342.284 324.988,342.636 324.901,342.894 324.687 C 343.152 324.473,343.363 324.390,343.363 324.502 C 343.363 324.615,343.906 324.474,344.570 324.190 C 345.233 323.906,345.994 323.626,346.259 323.567 C 346.525 323.508,346.778 323.431,346.822 323.395 C 346.866 323.360,347.047 323.294,347.224 323.250 C 347.401 323.206,347.619 323.134,347.707 323.089 C 347.796 323.045,347.977 322.979,348.109 322.942 C 348.242 322.905,348.758 322.706,349.257 322.499 C 349.755 322.293,350.370 322.124,350.624 322.124 C 350.878 322.124,351.086 321.979,351.086 321.802 C 351.086 321.625,351.195 321.506,351.327 321.536 C 351.631 321.607,352.877 321.072,355.752 319.639 C 356.991 319.022,358.284 318.463,358.625 318.397 C 358.966 318.331,359.331 318.138,359.436 317.968 C 359.541 317.798,359.986 317.505,360.425 317.318 C 361.364 316.916,362.309 316.330,362.922 315.768 C 363.163 315.547,363.567 315.366,363.820 315.366 C 364.073 315.366,364.280 315.237,364.280 315.079 C 364.280 314.921,364.606 314.706,365.004 314.601 C 365.402 314.495,366.364 313.832,367.141 313.126 C 367.917 312.421,368.670 311.916,368.814 312.005 C 368.957 312.094,369.232 311.872,369.424 311.513 C 369.616 311.154,369.904 310.861,370.064 310.861 C 370.224 310.861,370.823 310.433,371.395 309.911 C 371.967 309.388,372.535 309.022,372.656 309.096 C 372.777 309.171,373.338 308.658,373.903 307.955 C 374.468 307.252,375.105 306.677,375.320 306.677 C 375.534 306.677,375.894 306.382,376.120 306.021 C 376.345 305.660,376.692 305.466,376.890 305.588 C 377.110 305.724,377.162 305.666,377.022 305.440 C 376.886 305.220,376.997 305.068,377.294 305.068 C 377.570 305.068,377.796 304.897,377.796 304.688 C 377.796 304.479,378.990 303.150,380.451 301.736 C 381.911 300.322,382.888 299.285,382.623 299.433 C 382.355 299.582,382.441 299.356,382.816 298.926 C 383.188 298.499,383.585 297.887,383.699 297.566 C 383.819 297.227,384.062 297.079,384.279 297.214 C 384.491 297.345,384.567 297.305,384.453 297.122 C 384.344 296.944,384.539 296.494,384.886 296.120 C 385.234 295.747,385.519 295.290,385.519 295.106 C 385.519 294.922,385.748 294.771,386.028 294.771 C 386.309 294.771,386.473 294.590,386.394 294.368 C 386.249 293.962,386.999 292.196,387.316 292.196 C 387.410 292.196,387.384 292.363,387.258 292.568 C 387.119 292.793,387.169 292.852,387.386 292.718 C 387.583 292.597,387.653 292.261,387.542 291.972 C 387.423 291.661,387.472 291.529,387.663 291.647 C 387.841 291.756,387.986 291.651,387.986 291.413 C 387.986 290.576,388.815 288.989,389.146 289.193 C 389.344 289.315,389.383 289.242,389.242 289.014 C 389.111 288.802,389.233 288.278,389.514 287.849 C 389.794 287.421,390.024 286.848,390.024 286.576 C 390.024 286.304,390.184 286.082,390.380 286.082 C 390.576 286.082,390.654 285.867,390.553 285.603 C 390.450 285.335,390.532 285.158,390.741 285.201 C 390.945 285.243,391.165 284.988,391.229 284.634 C 391.325 284.105,391.286 284.076,391.012 284.473 C 390.776 284.814,390.676 284.835,390.673 284.543 C 390.670 284.317,390.869 284.054,391.115 283.959 C 391.373 283.860,391.493 283.525,391.399 283.165 C 391.310 282.823,391.384 282.542,391.565 282.542 C 391.747 282.542,391.819 282.254,391.727 281.903 C 391.624 281.506,391.748 281.191,392.054 281.073 C 392.377 280.949,392.497 280.607,392.401 280.078 C 392.310 279.575,392.380 279.350,392.588 279.478 C 392.771 279.591,392.920 279.543,392.920 279.370 C 392.920 279.197,392.755 279.001,392.552 278.933 C 392.285 278.844,392.301 278.594,392.611 278.022 C 393.063 277.185,393.308 276.091,393.309 274.899 C 393.310 274.501,393.448 274.175,393.617 274.175 C 393.786 274.175,393.834 274.031,393.725 273.854 C 393.615 273.677,393.700 273.532,393.912 273.532 C 394.187 273.532,394.241 273.050,394.100 271.842 C 393.979 270.807,394.013 270.330,394.188 270.610 C 394.805 271.596,394.892 263.661,395.055 191.311 C 395.216 120.405,395.126 109.234,394.339 101.689 C 394.274 101.070,394.195 100.098,394.163 99.530 C 394.131 98.962,393.983 98.572,393.834 98.664 C 393.686 98.756,393.545 98.642,393.522 98.410 C 393.359 96.748,393.292 96.233,393.091 95.093 C 392.967 94.385,392.834 93.586,392.797 93.317 C 392.760 93.048,392.619 92.650,392.484 92.432 C 392.349 92.214,392.334 91.881,392.451 91.692 C 392.568 91.503,392.408 91.162,392.096 90.934 C 391.754 90.684,391.609 90.310,391.732 89.990 C 391.843 89.699,391.823 89.461,391.687 89.461 C 391.551 89.461,391.440 88.956,391.440 88.338 C 391.440 87.616,391.202 86.993,390.773 86.593 C 390.406 86.251,390.008 85.453,389.889 84.820 C 389.770 84.187,389.519 83.669,389.332 83.669 C 389.144 83.669,389.076 83.444,389.182 83.169 C 389.287 82.894,389.266 82.734,389.135 82.813 C 389.005 82.892,388.642 82.456,388.330 81.843 C 388.018 81.230,387.924 80.829,388.121 80.950 C 388.379 81.110,388.377 80.981,388.114 80.489 C 387.913 80.114,387.609 79.807,387.438 79.807 C 387.268 79.807,387.128 79.517,387.128 79.163 C 387.128 78.809,386.922 78.520,386.670 78.520 C 386.418 78.520,386.045 78.013,385.841 77.393 C 385.636 76.774,385.335 76.267,385.172 76.267 C 385.009 76.267,384.875 76.045,384.875 75.774 C 384.875 75.503,384.658 75.198,384.393 75.096 C 384.127 74.994,383.910 74.725,383.910 74.497 C 383.910 74.270,383.693 74.000,383.427 73.898 C 383.162 73.796,382.944 73.507,382.944 73.255 C 382.944 73.002,382.727 72.713,382.462 72.611 C 382.196 72.509,381.979 72.238,381.979 72.008 C 381.979 71.778,381.332 71.028,380.542 70.341 C 379.751 69.653,379.167 68.989,379.244 68.865 C 379.321 68.740,379.027 68.475,378.590 68.276 C 378.153 68.077,377.796 67.694,377.796 67.424 C 377.796 67.155,377.580 66.935,377.316 66.935 C 377.052 66.935,376.655 66.645,376.434 66.291 C 376.213 65.937,375.841 65.648,375.608 65.648 C 375.374 65.648,375.273 65.503,375.382 65.326 C 375.492 65.149,375.363 65.004,375.096 65.004 C 374.829 65.004,374.224 64.497,373.751 63.878 C 373.279 63.258,372.727 62.751,372.525 62.751 C 372.323 62.751,371.767 62.389,371.290 61.947 C 370.813 61.504,370.276 61.142,370.098 61.142 C 369.919 61.142,369.616 60.849,369.424 60.490 C 369.232 60.131,368.936 59.923,368.767 60.027 C 368.597 60.132,368.372 59.991,368.266 59.715 C 368.160 59.438,367.864 59.212,367.610 59.212 C 367.355 59.212,366.800 58.865,366.377 58.441 C 365.953 58.018,365.525 57.752,365.426 57.851 C 365.327 57.950,365.245 57.863,365.245 57.656 C 365.245 57.450,365.028 57.281,364.763 57.281 C 364.497 57.281,364.280 57.136,364.280 56.959 C 364.280 56.782,364.171 56.672,364.039 56.713 C 363.906 56.755,363.120 56.321,362.291 55.748 C 361.463 55.175,360.689 54.706,360.572 54.706 C 360.455 54.706,359.991 54.417,359.541 54.063 C 359.091 53.709,358.452 53.419,358.122 53.419 C 357.792 53.419,357.522 53.250,357.522 53.044 C 357.522 52.837,357.432 52.758,357.322 52.868 C 357.212 52.978,356.417 52.711,355.554 52.274 C 354.692 51.837,353.943 51.518,353.890 51.564 C 353.837 51.611,353.425 51.408,352.976 51.114 C 352.526 50.819,351.012 50.186,349.611 49.707 C 348.210 49.227,346.883 48.690,346.661 48.513 C 346.440 48.336,346.259 48.299,346.259 48.431 C 346.259 48.563,346.042 48.491,345.776 48.270 C 345.511 48.050,345.294 47.953,345.294 48.056 C 345.294 48.158,344.678 48.018,343.926 47.746 C 343.174 47.473,342.341 47.200,342.076 47.141 C 341.810 47.081,341.557 47.003,341.512 46.968 C 341.468 46.932,341.287 46.866,341.110 46.822 C 340.933 46.778,340.680 46.707,340.547 46.663 C 340.414 46.620,340.213 46.597,340.101 46.611 C 339.988 46.625,339.409 46.490,338.813 46.310 C 337.247 45.836,335.996 45.528,334.352 45.213 C 333.910 45.128,333.186 44.983,332.743 44.890 C 332.301 44.796,331.360 44.646,330.652 44.555 C 329.944 44.465,329.147 44.325,328.882 44.245 C 328.616 44.165,327.820 44.028,327.112 43.942 C 326.404 43.855,325.318 43.708,324.698 43.615 C 324.079 43.522,322.776 43.375,321.802 43.289 C 320.829 43.202,319.308 43.054,318.423 42.958 C 310.500 42.105,303.270 42.041,202.395 41.931 C 144.775 41.868,97.566 41.877,97.488 41.950 M313.113 43.395 C 338.556 45.538,354.120 50.566,368.713 61.359 C 385.198 73.550,391.975 86.369,393.561 108.362 C 393.992 114.337,393.993 257.298,393.562 263.395 C 391.993 285.597,385.238 298.446,368.733 310.626 C 353.724 321.702,337.881 326.743,312.148 328.630 C 303.905 329.234,95.409 329.232,87.208 328.627 C 61.583 326.738,45.484 321.620,30.643 310.645 C 14.158 298.454,7.381 285.634,5.796 263.641 C 5.365 257.667,5.364 114.705,5.795 108.608 C 7.222 88.407,12.695 76.541,25.797 65.245 C 42.359 50.965,61.548 44.550,91.874 43.153 C 101.601 42.705,307.599 42.930,313.113 43.395 " stroke="none" fill="#a4a4a4" fill-rule="evenodd"></path><path id="path3" d="M95.820 42.062 C 96.221 42.139,96.800 42.136,97.108 42.055 C 97.415 41.975,97.088 41.912,96.380 41.915 C 95.672 41.919,95.420 41.985,95.820 42.062 M299.839 42.070 C 300.591 42.138,301.822 42.138,302.574 42.070 C 303.327 42.002,302.711 41.947,301.207 41.947 C 299.702 41.947,299.087 42.002,299.839 42.070 M309.175 42.384 C 309.575 42.461,310.155 42.458,310.462 42.377 C 310.770 42.297,310.442 42.234,309.735 42.237 C 309.027 42.241,308.775 42.307,309.175 42.384 M98.721 43.036 C 99.478 43.104,100.637 43.103,101.296 43.034 C 101.955 42.964,101.335 42.909,99.920 42.910 C 98.504 42.911,97.964 42.968,98.721 43.036 M298.239 43.036 C 298.995 43.104,300.154 43.103,300.813 43.034 C 301.472 42.964,300.853 42.909,299.437 42.910 C 298.021 42.911,297.482 42.968,298.239 43.036 M90.024 43.349 C 90.422 43.425,91.074 43.425,91.472 43.349 C 91.870 43.272,91.545 43.209,90.748 43.209 C 89.952 43.209,89.626 43.272,90.024 43.349 M307.884 43.349 C 308.282 43.425,308.934 43.425,309.332 43.349 C 309.730 43.272,309.405 43.209,308.608 43.209 C 307.812 43.209,307.486 43.272,307.884 43.349 M84.714 43.665 C 85.024 43.746,85.531 43.746,85.841 43.665 C 86.150 43.584,85.897 43.518,85.278 43.518 C 84.658 43.518,84.405 43.584,84.714 43.665 M313.516 43.665 C 313.825 43.746,314.332 43.746,314.642 43.665 C 314.952 43.584,314.698 43.518,314.079 43.518 C 313.459 43.518,313.206 43.584,313.516 43.665 M24.919 66.050 L 23.974 67.096 25.020 66.151 C 25.995 65.270,26.214 65.004,25.965 65.004 C 25.910 65.004,25.439 65.475,24.919 66.050 M373.290 65.105 C 373.290 65.160,373.761 65.631,374.336 66.151 L 375.382 67.096 374.437 66.050 C 373.556 65.075,373.290 64.856,373.290 65.105 M18.805 72.164 L 17.860 73.210 18.906 72.265 C 19.881 71.384,20.100 71.118,19.851 71.118 C 19.796 71.118,19.325 71.589,18.805 72.164 M379.405 71.219 C 379.405 71.274,379.875 71.745,380.451 72.265 L 381.496 73.210 380.551 72.164 C 379.670 71.189,379.405 70.970,379.405 71.219 M16.848 74.578 C 15.714 76.003,15.086 77.110,16.071 75.945 C 17.088 74.743,18.082 73.371,17.936 73.371 C 17.865 73.371,17.375 73.914,16.848 74.578 M385.846 77.405 C 385.854 77.959,386.443 78.669,386.689 78.422 C 386.821 78.290,386.684 77.938,386.385 77.639 C 386.086 77.339,385.843 77.234,385.846 77.405 M12.000 79.385 C 11.609 80.148,11.343 80.772,11.410 80.772 C 11.656 80.772,12.922 78.511,12.818 78.259 C 12.759 78.116,12.391 78.623,12.000 79.385 M9.690 87.566 C 9.492 88.135,9.386 88.656,9.455 88.725 C 9.523 88.794,9.742 88.385,9.940 87.816 C 10.138 87.248,10.244 86.726,10.175 86.657 C 10.107 86.588,9.888 86.997,9.690 87.566 M389.243 87.208 C 389.362 87.651,389.593 88.230,389.757 88.496 C 389.964 88.831,389.989 88.733,389.840 88.174 C 389.721 87.731,389.490 87.152,389.326 86.887 C 389.119 86.551,389.094 86.649,389.243 87.208 M8.367 91.714 C 8.167 92.457,8.066 93.129,8.143 93.206 C 8.220 93.283,8.439 92.730,8.630 91.977 C 8.821 91.224,8.922 90.553,8.854 90.485 C 8.786 90.417,8.567 90.970,8.367 91.714 M6.436 93.644 C 6.230 94.029,6.135 94.416,6.223 94.504 C 6.311 94.593,6.552 94.351,6.758 93.966 C 6.964 93.582,7.059 93.195,6.971 93.107 C 6.882 93.018,6.642 93.260,6.436 93.644 M6.202 104.264 C 6.202 105.060,6.265 105.386,6.341 104.988 C 6.418 104.590,6.418 103.938,6.341 103.540 C 6.265 103.142,6.202 103.467,6.202 104.264 M393.008 104.264 C 393.008 105.060,393.071 105.386,393.147 104.988 C 393.224 104.590,393.224 103.938,393.147 103.540 C 393.071 103.142,393.008 103.467,393.008 104.264 M393.339 107.482 C 393.339 108.455,393.399 108.854,393.473 108.367 C 393.546 107.880,393.546 107.084,393.473 106.597 C 393.399 106.110,393.339 106.508,393.339 107.482 M5.884 107.643 C 5.887 108.528,5.949 108.852,6.023 108.362 C 6.097 107.873,6.095 107.149,6.019 106.753 C 5.943 106.358,5.882 106.758,5.884 107.643 M4.280 110.700 C 4.280 111.673,4.340 112.072,4.414 111.585 C 4.488 111.098,4.488 110.302,4.414 109.815 C 4.340 109.328,4.280 109.726,4.280 110.700 M394.948 110.700 C 394.948 111.673,395.008 112.072,395.082 111.585 C 395.155 111.098,395.155 110.302,395.082 109.815 C 395.008 109.328,394.948 109.726,394.948 110.700 M393.678 113.757 C 393.677 115.350,393.732 116.042,393.799 115.295 C 393.867 114.548,393.867 113.245,393.801 112.399 C 393.734 111.553,393.679 112.164,393.678 113.757 M5.583 113.918 C 5.583 115.422,5.639 116.038,5.706 115.286 C 5.774 114.533,5.774 113.302,5.706 112.550 C 5.639 111.798,5.583 112.414,5.583 113.918 M354.061 173.693 L 354.140 202.896 354.224 173.865 L 354.308 144.834 357.443 144.729 L 360.579 144.624 357.281 144.556 L 353.982 144.489 354.061 173.693 M32.905 150.764 C 32.909 151.472,32.974 151.724,33.051 151.324 C 33.128 150.923,33.125 150.344,33.045 150.036 C 32.964 149.729,32.901 150.056,32.905 150.764 M97.909 152.051 C 97.913 152.759,97.978 153.011,98.055 152.611 C 98.132 152.211,98.129 151.631,98.049 151.324 C 97.968 151.016,97.905 151.344,97.909 152.051 M32.583 155.270 C 32.587 155.977,32.653 156.229,32.730 155.829 C 32.807 155.429,32.804 154.849,32.723 154.542 C 32.643 154.234,32.580 154.562,32.583 155.270 M98.231 156.879 C 98.234 157.586,98.300 157.838,98.377 157.438 C 98.454 157.038,98.451 156.458,98.371 156.151 C 98.290 155.843,98.227 156.171,98.231 156.879 M32.268 159.936 C 32.268 160.732,32.331 161.058,32.407 160.660 C 32.484 160.261,32.484 159.610,32.407 159.212 C 32.331 158.813,32.268 159.139,32.268 159.936 M38.509 158.863 C 38.391 158.981,38.311 159.596,38.331 160.231 L 38.368 161.384 38.619 160.097 C 38.883 158.744,38.862 158.510,38.509 158.863 M92.438 161.384 C 92.442 162.092,92.508 162.343,92.585 161.943 C 92.662 161.543,92.659 160.964,92.578 160.656 C 92.498 160.348,92.435 160.676,92.438 161.384 M98.553 161.384 C 98.556 162.092,98.622 162.343,98.699 161.943 C 98.776 161.543,98.773 160.964,98.693 160.656 C 98.612 160.348,98.549 160.676,98.553 161.384 M31.940 164.602 C 31.943 165.310,32.009 165.561,32.086 165.161 C 32.163 164.761,32.160 164.182,32.080 163.874 C 31.999 163.566,31.936 163.894,31.940 164.602 M38.054 164.602 C 38.057 165.310,38.123 165.561,38.200 165.161 C 38.277 164.761,38.274 164.182,38.194 163.874 C 38.113 163.566,38.050 163.894,38.054 164.602 M92.760 165.889 C 92.764 166.597,92.830 166.849,92.907 166.448 C 92.984 166.048,92.981 165.469,92.900 165.161 C 92.820 164.854,92.757 165.181,92.760 165.889 M98.881 166.050 C 98.881 166.846,98.944 167.172,99.020 166.774 C 99.097 166.376,99.097 165.724,99.020 165.326 C 98.944 164.928,98.881 165.253,98.881 166.050 M31.624 169.268 C 31.624 170.064,31.687 170.390,31.764 169.992 C 31.840 169.594,31.840 168.942,31.764 168.544 C 31.687 168.146,31.624 168.471,31.624 169.268 M37.732 169.107 C 37.736 169.815,37.801 170.067,37.878 169.666 C 37.955 169.266,37.952 168.687,37.872 168.379 C 37.791 168.072,37.728 168.399,37.732 169.107 M93.082 170.394 C 93.086 171.102,93.151 171.354,93.228 170.954 C 93.305 170.553,93.302 169.974,93.222 169.666 C 93.141 169.359,93.078 169.686,93.082 170.394 M99.196 170.716 C 99.200 171.424,99.266 171.676,99.343 171.275 C 99.420 170.875,99.417 170.296,99.336 169.988 C 99.256 169.681,99.193 170.008,99.196 170.716 M133.146 170.150 C 134.252 170.213,136.062 170.213,137.168 170.150 C 138.274 170.087,137.369 170.036,135.157 170.036 C 132.944 170.036,132.039 170.087,133.146 170.150 M196.551 170.149 C 197.487 170.214,198.935 170.214,199.769 170.148 C 200.604 170.082,199.839 170.028,198.069 170.029 C 196.299 170.030,195.616 170.084,196.551 170.149 M313.998 170.150 C 315.105 170.213,316.915 170.213,318.021 170.150 C 319.127 170.087,318.222 170.036,316.010 170.036 C 313.797 170.036,312.892 170.087,313.998 170.150 M236.031 188.576 C 236.031 198.222,236.072 202.168,236.122 197.345 C 236.172 192.522,236.172 184.630,236.122 179.807 C 236.072 174.984,236.031 178.930,236.031 188.576 M282.051 193.081 C 282.051 205.205,282.091 210.165,282.140 204.103 C 282.189 198.041,282.189 188.121,282.140 182.060 C 282.091 175.998,282.051 180.957,282.051 193.081 M37.410 173.612 C 37.414 174.320,37.480 174.572,37.557 174.172 C 37.634 173.771,37.631 173.192,37.550 172.884 C 37.470 172.577,37.407 172.904,37.410 173.612 M31.296 173.934 C 31.300 174.642,31.365 174.894,31.442 174.493 C 31.519 174.093,31.516 173.514,31.436 173.206 C 31.355 172.899,31.292 173.226,31.296 173.934 M93.404 174.899 C 93.407 175.607,93.473 175.859,93.550 175.459 C 93.627 175.059,93.624 174.479,93.544 174.172 C 93.463 173.864,93.400 174.191,93.404 174.899 M99.524 175.382 C 99.524 176.179,99.587 176.504,99.664 176.106 C 99.741 175.708,99.741 175.056,99.664 174.658 C 99.587 174.260,99.524 174.586,99.524 175.382 M37.088 178.117 C 37.092 178.825,37.158 179.077,37.235 178.677 C 37.312 178.277,37.309 177.697,37.228 177.390 C 37.148 177.082,37.085 177.409,37.088 178.117 M30.974 178.439 C 30.978 179.147,31.044 179.399,31.121 178.999 C 31.198 178.598,31.195 178.019,31.114 177.711 C 31.034 177.404,30.971 177.731,30.974 178.439 M145.455 178.761 C 146.055 179.381,146.619 179.887,146.707 179.887 C 146.796 179.887,146.377 179.381,145.776 178.761 C 145.176 178.142,144.612 177.635,144.524 177.635 C 144.435 177.635,144.854 178.142,145.455 178.761 M326.307 178.761 C 326.908 179.381,327.471 179.887,327.560 179.887 C 327.648 179.887,327.230 179.381,326.629 178.761 C 326.029 178.142,325.465 177.635,325.377 177.635 C 325.288 177.635,325.707 178.142,326.307 178.761 M93.726 179.405 C 93.729 180.113,93.795 180.364,93.872 179.964 C 93.949 179.564,93.946 178.985,93.866 178.677 C 93.785 178.369,93.722 178.697,93.726 179.405 M207.884 179.405 C 208.485 180.024,209.048 180.531,209.137 180.531 C 209.225 180.531,208.806 180.024,208.206 179.405 C 207.606 178.785,207.042 178.278,206.953 178.278 C 206.865 178.278,207.284 178.785,207.884 179.405 M172.882 179.566 C 172.882 180.185,172.949 180.438,173.030 180.129 C 173.110 179.819,173.110 179.312,173.030 179.002 C 172.949 178.693,172.882 178.946,172.882 179.566 M99.840 180.048 C 99.843 180.756,99.909 181.008,99.986 180.608 C 100.063 180.207,100.060 179.628,99.980 179.320 C 99.899 179.013,99.836 179.340,99.840 180.048 M36.767 182.623 C 36.770 183.331,36.836 183.582,36.913 183.182 C 36.990 182.782,36.987 182.203,36.907 181.895 C 36.826 181.587,36.763 181.915,36.767 182.623 M94.047 183.910 C 94.051 184.618,94.117 184.870,94.194 184.469 C 94.271 184.069,94.268 183.490,94.187 183.182 C 94.107 182.874,94.044 183.202,94.047 183.910 M100.162 184.553 C 100.165 185.261,100.231 185.513,100.308 185.113 C 100.385 184.713,100.382 184.133,100.302 183.826 C 100.221 183.518,100.158 183.846,100.162 184.553 M173.281 204.666 C 173.281 216.436,173.322 221.251,173.371 215.366 C 173.420 209.481,173.420 199.851,173.371 193.966 C 173.322 188.081,173.281 192.896,173.281 204.666 M30.349 186.163 C 30.351 187.224,30.411 187.620,30.483 187.042 C 30.554 186.463,30.553 185.594,30.479 185.111 C 30.406 184.627,30.347 185.101,30.349 186.163 M36.445 187.128 C 36.448 187.836,36.514 188.088,36.591 187.687 C 36.668 187.287,36.665 186.708,36.585 186.400 C 36.504 186.092,36.441 186.420,36.445 187.128 M94.369 188.415 C 94.373 189.123,94.439 189.375,94.516 188.975 C 94.593 188.574,94.590 187.995,94.509 187.687 C 94.429 187.380,94.366 187.707,94.369 188.415 M100.483 189.381 C 100.487 190.088,100.553 190.340,100.630 189.940 C 100.707 189.540,100.704 188.960,100.623 188.653 C 100.543 188.345,100.480 188.673,100.483 189.381 M36.123 191.633 C 36.127 192.341,36.192 192.593,36.269 192.193 C 36.346 191.792,36.343 191.213,36.263 190.905 C 36.182 190.598,36.119 190.925,36.123 191.633 M30.015 192.438 C 30.015 193.234,30.078 193.560,30.155 193.162 C 30.231 192.763,30.231 192.112,30.155 191.714 C 30.078 191.315,30.015 191.641,30.015 192.438 M156.542 203.540 C 156.542 210.442,156.585 213.220,156.637 209.713 C 156.689 206.206,156.689 200.558,156.637 197.163 C 156.585 193.768,156.542 196.637,156.542 203.540 M212.792 192.277 C 212.796 192.985,212.862 193.236,212.939 192.836 C 213.016 192.436,213.013 191.857,212.932 191.549 C 212.852 191.241,212.789 191.569,212.792 192.277 M337.395 203.540 C 337.395 210.442,337.438 213.220,337.490 209.713 C 337.542 206.206,337.542 200.558,337.489 197.163 C 337.437 193.768,337.395 196.637,337.395 203.540 M94.691 192.920 C 94.695 193.628,94.760 193.880,94.837 193.480 C 94.914 193.079,94.911 192.500,94.831 192.193 C 94.750 191.885,94.687 192.212,94.691 192.920 M144.903 192.032 C 145.927 192.096,147.520 192.096,148.443 192.031 C 149.366 191.966,148.528 191.914,146.581 191.914 C 144.634 191.915,143.879 191.968,144.903 192.032 M325.756 192.032 C 326.780 192.096,328.373 192.096,329.296 192.031 C 330.218 191.966,329.381 191.914,327.434 191.914 C 325.487 191.915,324.732 191.968,325.756 192.032 M139.421 192.338 C 139.730 192.419,140.237 192.419,140.547 192.338 C 140.857 192.257,140.603 192.191,139.984 192.191 C 139.364 192.191,139.111 192.257,139.421 192.338 M320.274 192.338 C 320.583 192.419,321.090 192.419,321.400 192.338 C 321.710 192.257,321.456 192.191,320.837 192.191 C 320.217 192.191,319.964 192.257,320.274 192.338 M100.805 193.886 C 100.809 194.594,100.875 194.845,100.952 194.445 C 101.029 194.045,101.026 193.466,100.945 193.158 C 100.865 192.850,100.802 193.178,100.805 193.886 M219.297 209.332 C 219.297 218.536,219.338 222.255,219.388 217.596 C 219.439 212.938,219.439 205.407,219.388 200.862 C 219.338 196.317,219.297 200.129,219.297 209.332 M35.801 196.138 C 35.805 196.846,35.871 197.098,35.948 196.698 C 36.025 196.297,36.022 195.718,35.941 195.411 C 35.861 195.103,35.798 195.430,35.801 196.138 M29.687 197.104 C 29.691 197.812,29.756 198.063,29.833 197.663 C 29.910 197.263,29.907 196.684,29.827 196.376 C 29.746 196.068,29.683 196.396,29.687 197.104 M95.013 197.426 C 95.016 198.134,95.082 198.385,95.159 197.985 C 95.236 197.585,95.233 197.005,95.153 196.698 C 95.072 196.390,95.009 196.718,95.013 197.426 M101.134 198.552 C 101.134 199.348,101.196 199.674,101.273 199.276 C 101.350 198.878,101.350 198.226,101.273 197.828 C 101.196 197.430,101.134 197.755,101.134 198.552 M142.478 197.492 C 142.876 197.568,143.528 197.568,143.926 197.492 C 144.324 197.415,143.998 197.352,143.202 197.352 C 142.405 197.352,142.080 197.415,142.478 197.492 M323.331 197.492 C 323.729 197.568,324.381 197.568,324.779 197.492 C 325.177 197.415,324.851 197.352,324.055 197.352 C 323.258 197.352,322.932 197.415,323.331 197.492 M35.479 200.644 C 35.483 201.352,35.549 201.603,35.626 201.203 C 35.703 200.803,35.700 200.223,35.619 199.916 C 35.539 199.608,35.476 199.936,35.479 200.644 M29.365 201.609 C 29.369 202.317,29.435 202.569,29.512 202.168 C 29.589 201.768,29.586 201.189,29.505 200.881 C 29.425 200.574,29.362 200.901,29.365 201.609 M95.335 201.931 C 95.338 202.639,95.404 202.891,95.481 202.490 C 95.558 202.090,95.555 201.511,95.475 201.203 C 95.394 200.895,95.331 201.223,95.335 201.931 M360.499 202.574 C 360.503 203.282,360.569 203.534,360.646 203.134 C 360.723 202.734,360.720 202.154,360.639 201.847 C 360.559 201.539,360.496 201.866,360.499 202.574 M101.449 203.218 C 101.452 203.926,101.518 204.178,101.595 203.777 C 101.672 203.377,101.669 202.798,101.589 202.490 C 101.508 202.183,101.445 202.510,101.449 203.218 M35.158 205.149 C 35.161 205.857,35.227 206.109,35.304 205.708 C 35.381 205.308,35.378 204.729,35.298 204.421 C 35.217 204.113,35.154 204.441,35.158 205.149 M29.043 206.436 C 29.047 207.144,29.113 207.396,29.190 206.995 C 29.267 206.595,29.264 206.016,29.183 205.708 C 29.103 205.401,29.040 205.728,29.043 206.436 M95.656 206.436 C 95.660 207.144,95.726 207.396,95.803 206.995 C 95.880 206.595,95.877 206.016,95.796 205.708 C 95.716 205.401,95.653 205.728,95.656 206.436 M101.771 207.723 C 101.774 208.431,101.840 208.683,101.917 208.283 C 101.994 207.882,101.991 207.303,101.911 206.995 C 101.830 206.688,101.767 207.015,101.771 207.723 M34.836 209.654 C 34.839 210.362,34.905 210.614,34.982 210.213 C 35.059 209.813,35.056 209.234,34.976 208.926 C 34.895 208.619,34.832 208.946,34.836 209.654 M113.709 212.068 C 113.709 213.572,113.764 214.187,113.832 213.435 C 113.900 212.683,113.900 211.452,113.832 210.700 C 113.764 209.948,113.709 210.563,113.709 212.068 M294.561 212.068 C 294.561 213.572,294.617 214.187,294.685 213.435 C 294.752 212.683,294.752 211.452,294.685 210.700 C 294.617 209.948,294.561 210.563,294.561 212.068 M28.722 210.941 C 28.725 211.649,28.791 211.901,28.868 211.501 C 28.945 211.100,28.942 210.521,28.861 210.213 C 28.781 209.906,28.718 210.233,28.722 210.941 M95.978 210.941 C 95.982 211.649,96.048 211.901,96.125 211.501 C 96.202 211.100,96.199 210.521,96.118 210.213 C 96.038 209.906,95.975 210.233,95.978 210.941 M102.092 212.550 C 102.096 213.258,102.162 213.510,102.239 213.110 C 102.316 212.709,102.313 212.130,102.232 211.822 C 102.152 211.515,102.089 211.842,102.092 212.550 M34.514 214.159 C 34.518 214.867,34.583 215.119,34.660 214.719 C 34.737 214.318,34.734 213.739,34.654 213.431 C 34.573 213.124,34.510 213.451,34.514 214.159 M96.300 215.447 C 96.304 216.154,96.369 216.406,96.446 216.006 C 96.523 215.606,96.520 215.026,96.440 214.719 C 96.359 214.411,96.296 214.739,96.300 215.447 M28.400 215.768 C 28.403 216.476,28.469 216.728,28.546 216.328 C 28.623 215.927,28.620 215.348,28.540 215.040 C 28.459 214.733,28.396 215.060,28.400 215.768 M102.414 217.056 C 102.418 217.763,102.484 218.015,102.561 217.615 C 102.638 217.215,102.635 216.635,102.554 216.328 C 102.474 216.020,102.411 216.348,102.414 217.056 M34.192 218.665 C 34.196 219.372,34.262 219.624,34.339 219.224 C 34.416 218.824,34.413 218.244,34.332 217.937 C 34.252 217.629,34.189 217.957,34.192 218.665 M96.622 219.952 C 96.625 220.660,96.691 220.911,96.768 220.511 C 96.845 220.111,96.842 219.532,96.762 219.224 C 96.681 218.916,96.618 219.244,96.622 219.952 M28.078 220.274 C 28.082 220.981,28.147 221.233,28.224 220.833 C 28.301 220.433,28.298 219.853,28.218 219.546 C 28.137 219.238,28.074 219.566,28.078 220.274 M102.736 221.883 C 102.740 222.591,102.805 222.842,102.882 222.442 C 102.959 222.042,102.957 221.462,102.876 221.155 C 102.795 220.847,102.732 221.175,102.736 221.883 M117.297 222.043 C 117.988 222.751,118.626 223.331,118.715 223.331 C 118.803 223.331,118.310 222.751,117.619 222.043 C 116.927 221.335,116.289 220.756,116.201 220.756 C 116.112 220.756,116.606 221.335,117.297 222.043 M298.150 222.043 C 298.841 222.751,299.479 223.331,299.567 223.331 C 299.656 223.331,299.163 222.751,298.471 222.043 C 297.780 221.335,297.142 220.756,297.054 220.756 C 296.965 220.756,297.458 221.335,298.150 222.043 M372.969 221.526 C 372.969 221.595,373.465 221.709,374.072 221.780 C 374.679 221.851,375.105 221.794,375.019 221.654 C 374.863 221.402,372.969 221.283,372.969 221.526 M129.767 221.943 C 130.076 222.024,130.583 222.024,130.893 221.943 C 131.203 221.863,130.949 221.796,130.330 221.796 C 129.710 221.796,129.457 221.863,129.767 221.943 M132.828 221.949 C 133.228 222.026,133.807 222.023,134.115 221.943 C 134.422 221.862,134.095 221.799,133.387 221.803 C 132.679 221.806,132.427 221.872,132.828 221.949 M255.112 221.949 C 255.513 222.026,256.092 222.023,256.400 221.943 C 256.707 221.862,256.380 221.799,255.672 221.803 C 254.964 221.806,254.712 221.872,255.112 221.949 M258.009 221.949 C 258.409 222.026,258.988 222.023,259.296 221.943 C 259.603 221.862,259.276 221.799,258.568 221.803 C 257.860 221.806,257.608 221.872,258.009 221.949 M310.619 221.943 C 310.929 222.024,311.436 222.024,311.746 221.943 C 312.056 221.863,311.802 221.796,311.183 221.796 C 310.563 221.796,310.310 221.863,310.619 221.943 M313.680 221.949 C 314.081 222.026,314.660 222.023,314.968 221.943 C 315.275 221.862,314.948 221.799,314.240 221.803 C 313.532 221.806,313.280 221.872,313.680 221.949 M33.870 223.170 C 33.874 223.878,33.940 224.129,34.017 223.729 C 34.094 223.329,34.091 222.750,34.010 222.442 C 33.930 222.134,33.867 222.462,33.870 223.170 M96.944 224.457 C 96.947 225.165,97.013 225.417,97.090 225.016 C 97.167 224.616,97.164 224.037,97.084 223.729 C 97.003 223.421,96.940 223.749,96.944 224.457 M27.756 224.779 C 27.760 225.487,27.826 225.738,27.903 225.338 C 27.980 224.938,27.977 224.359,27.896 224.051 C 27.816 223.743,27.753 224.071,27.756 224.779 M5.585 258.246 C 5.584 259.839,5.638 260.531,5.706 259.784 C 5.773 259.038,5.774 257.734,5.708 256.888 C 5.641 256.042,5.586 256.653,5.585 258.246 M393.676 258.085 C 393.676 259.590,393.732 260.205,393.800 259.453 C 393.867 258.701,393.867 257.470,393.800 256.718 C 393.732 255.965,393.676 256.581,393.676 258.085 M4.275 261.142 C 4.278 262.027,4.340 262.351,4.414 261.862 C 4.488 261.373,4.486 260.649,4.410 260.253 C 4.334 259.857,4.273 260.257,4.275 261.142 M394.943 261.464 C 394.946 262.349,395.008 262.673,395.082 262.184 C 395.156 261.695,395.154 260.971,395.078 260.575 C 395.001 260.179,394.941 260.579,394.943 261.464 M5.889 264.521 C 5.889 265.495,5.949 265.893,6.023 265.406 C 6.097 264.920,6.097 264.123,6.023 263.636 C 5.949 263.150,5.889 263.548,5.889 264.521 M393.334 264.360 C 393.337 265.245,393.399 265.569,393.473 265.080 C 393.547 264.591,393.545 263.867,393.469 263.471 C 393.392 263.075,393.332 263.475,393.334 264.360 M6.202 267.739 C 6.202 268.536,6.265 268.862,6.341 268.463 C 6.418 268.065,6.418 267.414,6.341 267.015 C 6.265 266.617,6.202 266.943,6.202 267.739 M393.008 267.739 C 393.008 268.536,393.071 268.862,393.147 268.463 C 393.224 268.065,393.224 267.414,393.147 267.015 C 393.071 266.617,393.008 266.943,393.008 267.739 M5.333 273.210 C 5.452 273.652,5.683 274.232,5.847 274.497 C 6.054 274.833,6.079 274.735,5.930 274.175 C 5.811 273.733,5.580 273.154,5.416 272.888 C 5.209 272.553,5.184 272.651,5.333 273.210 M392.599 278.037 C 392.393 278.421,392.297 278.808,392.386 278.897 C 392.474 278.985,392.715 278.743,392.920 278.359 C 393.126 277.975,393.222 277.588,393.133 277.499 C 393.045 277.411,392.804 277.653,392.599 278.037 M390.726 280.026 C 390.535 280.779,390.434 281.451,390.502 281.518 C 390.570 281.586,390.789 281.033,390.990 280.290 C 391.190 279.546,391.291 278.874,391.214 278.797 C 391.137 278.720,390.917 279.273,390.726 280.026 M9.517 283.829 C 9.635 284.272,9.866 284.851,10.030 285.117 C 10.237 285.452,10.263 285.354,10.113 284.795 C 9.995 284.352,9.764 283.773,9.600 283.508 C 9.392 283.172,9.367 283.270,9.517 283.829 M389.416 284.187 C 389.218 284.756,389.112 285.277,389.181 285.346 C 389.250 285.415,389.468 285.006,389.667 284.437 C 389.865 283.869,389.971 283.347,389.902 283.278 C 389.833 283.209,389.615 283.618,389.416 284.187 M8.689 285.828 C 8.689 286.101,8.930 286.524,9.224 286.767 C 9.714 287.171,9.724 287.140,9.341 286.404 C 8.781 285.325,8.689 285.244,8.689 285.828 M388.798 289.155 C 387.828 291.150,387.936 291.430,388.935 289.510 C 389.381 288.652,389.692 287.895,389.624 287.828 C 389.557 287.760,389.185 288.358,388.798 289.155 M387.376 291.955 C 386.526 293.265,386.136 294.127,386.393 294.126 C 386.532 294.126,386.962 293.474,387.350 292.678 C 388.113 291.111,388.124 290.801,387.376 291.955 M12.523 293.725 C 12.698 294.035,13.221 294.722,13.687 295.253 L 14.534 296.219 13.916 295.253 C 13.577 294.722,13.207 294.035,13.095 293.725 C 12.984 293.415,12.738 293.162,12.549 293.162 C 12.316 293.162,12.308 293.342,12.523 293.725 M382.925 296.450 C 381.539 298.279,381.250 298.825,382.280 297.667 C 383.255 296.571,384.046 295.414,383.821 295.414 C 383.759 295.414,383.356 295.880,382.925 296.450 M384.069 297.025 C 383.748 297.380,383.561 297.747,383.654 297.840 C 383.747 297.933,384.063 297.642,384.356 297.194 C 384.998 296.215,384.870 296.140,384.069 297.025 M18.021 299.055 C 18.021 299.110,18.492 299.581,19.067 300.101 L 20.113 301.046 19.167 300.000 C 18.286 299.025,18.021 298.806,18.021 299.055 M380.189 300.000 L 379.244 301.046 380.290 300.101 C 381.265 299.220,381.483 298.954,381.235 298.954 C 381.179 298.954,380.709 299.425,380.189 300.000 M24.135 305.169 C 24.135 305.224,24.606 305.695,25.181 306.215 L 26.227 307.160 25.282 306.114 C 24.401 305.139,24.135 304.920,24.135 305.169 M374.075 306.114 L 373.130 307.160 374.175 306.215 C 375.150 305.334,375.369 305.068,375.121 305.068 C 375.065 305.068,374.595 305.539,374.075 306.114 M84.714 328.460 C 85.024 328.541,85.531 328.541,85.841 328.460 C 86.150 328.379,85.897 328.313,85.278 328.313 C 84.658 328.313,84.405 328.379,84.714 328.460 M313.516 328.460 C 313.825 328.541,314.332 328.541,314.642 328.460 C 314.952 328.379,314.698 328.313,314.079 328.313 C 313.459 328.313,313.206 328.379,313.516 328.460 M90.189 328.791 C 90.679 328.865,91.403 328.863,91.798 328.786 C 92.194 328.710,91.794 328.650,90.909 328.652 C 90.024 328.654,89.700 328.717,90.189 328.791 M307.728 328.791 C 308.217 328.865,308.941 328.863,309.337 328.786 C 309.732 328.710,309.332 328.650,308.447 328.652 C 307.562 328.654,307.239 328.717,307.728 328.791 M98.391 329.117 C 99.143 329.185,100.374 329.185,101.126 329.117 C 101.879 329.050,101.263 328.994,99.759 328.994 C 98.254 328.994,97.639 329.050,98.391 329.117 M298.230 329.117 C 298.982 329.185,300.213 329.185,300.965 329.117 C 301.718 329.050,301.102 328.994,299.598 328.994 C 298.093 328.994,297.478 329.050,298.230 329.117 M89.386 329.759 C 89.965 329.830,90.834 329.829,91.317 329.755 C 91.801 329.682,91.327 329.623,90.265 329.625 C 89.204 329.627,88.808 329.687,89.386 329.759 " stroke="none" fill="#a8d3bb" fill-rule="evenodd"></path><path id="path4" d="M147.492 330.088 C 176.312 330.134,223.375 330.134,252.078 330.088 C 280.780 330.043,257.200 330.006,199.678 330.006 C 142.156 330.006,118.672 330.043,147.492 330.088 " stroke="none" fill="#156c9d" fill-rule="evenodd"></path></g></svg>