<svg id="Layer_1" enable-background="new 0 0 512 512" height="512" viewBox="0 0 512 512" width="512" xmlns="http://www.w3.org/2000/svg"><g><path d="m256 408c0 47.57-34.6 87.05-80 94.66-5.64.96-11.46 1.41-17.4 1.33-51.85-.74-94.08-43.17-94.6-95.021-.32-32.52 15.53-61.34 40-78.95v-266.019c0-30.93 25.07-56 56-56 30.84 0 56 24.99 56 56v266.02c24.23 17.43 40 45.86 40 77.98z" fill="#e2e0e0"/><path d="m216 330.02v-162.02-104c0-39.473-39.68-66.242-76-52.32 21.02 8.04 36 28.39 36 52.32v104 162.02 172.64c45.4-7.61 80-47.09 80-94.66 0-32.12-15.77-60.55-40-77.98z" fill="#cecccc"/><path d="m216 408c0 31.776-26.6 57.454-58.704 55.936-28.413-1.343-51.553-24.22-53.2-52.616-1.552-26.749 15.79-49.79 39.904-56.99v-130.33c0-8.837 7.163-16 16-16 8.809 0 16 7.136 16 16v130.33c23.11 6.9 40 28.35 40 53.67z" fill="#f79caf"/><path d="m448 80s-104.935 3.112-158.392 56.569c-25.306 25.306-19.649 70.861 5.657 96.167s70.861 30.963 96.167 5.657c53.457-53.458 56.568-158.393 56.568-158.393z" fill="#acebe2"/><path d="m448 80s-3.11 104.94-56.57 158.39c-16.29 16.3-40.98 19.75-63.26 13.39 8.27-2.63 15.91-7.03 22.26-13.39 46.73-46.73 54.99-132.8 56.33-153.72 24.03-4.16 41.24-4.67 41.24-4.67z" fill="#98d7ce"/><path d="m216 408c0 31.78-26.6 57.45-58.7 55.94-4.59-.22-9.03-1-13.27-2.27 23.12-6.89 39.97-28.31 39.97-53.67 0-25.37-16.87-46.8-40-53.68v-130.32c0-8.84 7.16-16 16-16 8.81 0 16 7.14 16 16v130.33c23.11 6.9 40 28.35 40 53.67z" fill="#e3889b"/><path d="m224 326.023v-262.023c0-35.29-28.71-64-64-64s-64 28.71-64 64v262.023c-49.046 38.346-53.858 110.825-9.618 155.266 19.518 19.606 45.638 30.711 73.633 30.711 57.261 0 103.985-46.319 103.985-104 0-31.991-14.877-62.327-40-81.977zm-2.222 144.648c-16.906 16.666-39.338 25.642-63.063 25.32-47.345-.675-86.243-39.749-86.71-87.102-.282-28.6 13.425-55.656 36.667-72.375 2.09-1.503 3.329-3.92 3.329-6.494v-266.02c0-26.468 21.533-48 48-48s48 21.532 48 48v266.021c0 2.574 1.239 4.991 3.329 6.494 43.906 31.586 49.592 95.565 10.448 134.156z"/><path d="m447.763 72.004c-4.414.131-108.742 3.838-163.812 58.907-26.791 26.792-23.217 72.578.303 101.521l-17.911 17.911c-3.125 3.125-3.125 8.189 0 11.314 3.125 3.124 8.189 3.123 11.313 0l17.911-17.912c29.073 23.627 74.839 26.983 101.52.303 55.069-55.069 58.777-159.397 58.908-163.812.139-4.611-3.65-8.378-8.232-8.232zm-61.988 160.73c-20.678 20.678-56.467 16.69-78.806-.389 117.094-117.094-68.891 68.892 40.345-40.345h28.686c4.418 0 8-3.582 8-8s-3.582-8-8-8h-12.686l18.343-18.343c3.125-3.125 3.125-8.189 0-11.314-3.124-3.123-8.189-3.123-11.313 0l-38.348 38.348 3.896-23.375c.727-4.358-2.218-8.48-6.576-9.207-4.351-.728-8.479 2.218-9.206 6.576l-7.578 45.471-16.89 16.89c-17.58-22.76-20.702-58.494-.376-78.82 41.78-41.78 118.314-51.521 144.176-53.66-2.125 25.854-11.826 102.328-53.667 144.168z"/><path d="m184 348.674v-124.674c0-13.233-10.767-24-24-24-13.234 0-24 10.767-24 24v124.662c-42.96 17.305-53.461 72.664-20.966 104.799 11.662 11.533 27.561 18.54 45.01 18.54 34.88 0 63.956-28.283 63.956-64.001 0-26.045-16.176-49.634-40-59.326zm9.103 94.051c-29.879 28.497-78.702 8.086-81.02-31.868-1.297-22.368 12.769-42.461 34.206-48.86 3.389-1.012 5.711-4.129 5.711-7.666v-130.331c0-4.411 3.589-8 8-8s8 3.589 8 8v130.33c0 3.537 2.322 6.653 5.711 7.666 34.883 10.414 46.256 55.104 19.392 80.729z"/></g></svg>